<svg width="444" height="186" viewBox="0 0 444 186" fill="none" xmlns="http://www.w3.org/2000/svg">
<g clip-path="url(#clip0_255_218)">
<mask id="mask0_255_218" style="mask-type:luminance" maskUnits="userSpaceOnUse" x="15" y="0" width="414" height="139">
<path d="M429 0H15V139H429V0Z" fill="white"/>
</mask>
<g mask="url(#mask0_255_218)">
<path d="M176.313 92.1372C170.411 104.115 159.918 113.958 140.557 113.958C119.04 113.958 100.319 96.8432 100.319 75.6644C100.319 54.4857 119.895 37.3862 141.546 37.3862C153.355 37.3862 160.461 40.3933 169.755 46.372L166.476 58.565H165.708C157.726 46.1565 144.702 36.9604 130.393 39.9573C111.693 43.9113 104.915 65.5161 110.817 84.4496C116.724 103.273 132.468 113.116 151.711 110.229C161.553 108.836 169.975 102.526 175.549 91.8316L176.313 92.1372Z" fill="white"/>
<path d="M203.427 26.4604L202.771 27.4228C200.148 26.4604 194.353 23.9147 186.479 19.4043C183.856 17.9008 183.963 15.8962 184.942 14.5881C185.931 13.2 187.898 12.5585 190.065 14.4829C196.869 20.3464 201.352 24.536 203.427 26.4604ZM200.04 45.6095V106.249C200.04 109.993 200.804 111.597 202.556 112.559V113.305H188.994V112.559C190.634 111.597 191.402 109.993 191.402 106.249V45.6095C191.402 41.866 190.634 40.2622 188.994 39.295V38.4431H202.556V39.295C200.804 40.2622 200.04 41.866 200.04 45.6095Z" fill="white"/>
<path d="M278.573 113.311H261.713V112.559C264.555 109.778 263.678 106.044 260.616 98.2264L255.262 84.645H228.144L225.193 92.7738C221.704 102.536 221.146 107.753 225.736 112.559V113.306H212.836V112.559C217.539 107.748 220.705 102.827 224.317 92.7738L240.712 47.6348L237.125 38.4387H245.763L267.086 92.7738C271.569 103.468 274.413 107.748 278.567 112.559L278.573 113.311ZM254.955 83.7931L241.173 48.8176L228.472 83.7931H254.955Z" fill="white"/>
<path d="M350.294 113.311H333.433V112.56C336.278 109.778 335.405 106.045 332.342 98.2266L326.983 84.6452H299.866L296.914 92.7741C293.426 102.536 292.868 107.753 297.464 112.56V113.306H284.557V112.56C289.26 107.749 292.432 102.827 296.04 92.7741L312.433 47.635L308.847 38.439H317.485L338.808 92.7741C343.291 103.469 346.134 107.749 350.289 112.56L350.294 113.311ZM326.676 83.7933L312.893 48.8179L300.193 83.7933H326.676Z" fill="white"/>
<path d="M429.004 38.4438V39.2959C425.391 41.1151 422.113 46.6779 422.113 51.2784V113.311H420.484L368.438 48.1613V100.477C368.438 105.077 371.716 110.745 375.435 112.565V113.311H360.665V112.56C364.38 110.74 367.663 105.072 367.663 100.472V47.2141L360.665 38.4438H371.705L421.236 99.8353V51.2784C421.236 46.6779 417.957 41.1151 414.352 39.2959V38.4438H429.004Z" fill="white"/>
<path d="M47.8438 41.0898C47.8438 41.0898 52.0191 53.4033 66.9125 50.8624C62.989 45.9623 57.339 42.6691 51.0663 41.6262L47.8438 41.0898Z" fill="white"/>
<path d="M80.6751 0H15V41.0094L34.3505 35.0207L15 47.745V90.4583L36.072 79.012L15 99.915V139.005H25.3848L49.4642 108.68L37.2656 139.005H80.6853V126.476L63.8349 120.578C63.3407 120.404 62.9238 120.068 62.6563 119.626C62.389 119.184 62.2875 118.664 62.3696 118.157L63.0356 114.103C63.1471 113.41 63.485 112.772 63.9985 112.283C64.512 111.794 65.1735 111.482 65.8842 111.392L80.6751 109.482V82.7205L65.8176 81.5277C65.7101 81.5195 65.6026 81.5403 65.5064 81.5879C65.4103 81.6354 65.3293 81.7077 65.2723 81.7971C65.2151 81.8865 65.1841 81.9895 65.1828 82.0947C65.1815 82.2002 65.2095 82.3039 65.2643 82.3948C67.0382 85.1322 69.5385 87.3474 72.4984 88.8045L76.5046 90.7789C77.1964 91.1198 77.7778 91.6418 78.184 92.287C78.5902 92.9321 78.8052 93.6748 78.805 94.4324V102.897C78.8045 103.344 78.659 103.779 78.3892 104.139C78.1192 104.499 77.7393 104.767 77.3039 104.902L64.6853 108.846C64.1229 109.019 63.5181 109.008 62.963 108.813C62.4079 108.618 61.9331 108.251 61.6113 107.768L54.8896 97.6347C54.551 97.1189 54.344 96.5309 54.2861 95.9204C54.2283 95.3099 54.3209 94.6948 54.5566 94.1266C57.1746 87.8873 59.8233 85.7976 59.8233 85.7976C56.5854 86.6795 53.6754 89.1202 51.1958 92.067L47.7837 86.92C47.1433 85.9578 46.5439 84.9756 45.9752 83.9834C45.5289 83.2019 45.3767 82.2922 45.5447 81.4125C47.0819 73.4741 49.7715 70.5374 49.7715 70.5374C46.9537 71.8054 44.6482 74.3463 42.7476 77.318C40.2527 71.0908 38.9719 64.4614 38.9717 57.773V49.048C38.9715 35.7003 44.1349 22.847 53.4243 13.0701C54.324 12.1384 55.4781 11.4788 56.7495 11.1697C58.0208 10.8606 59.3561 10.9148 60.597 11.3261L80.7007 17.8411L80.6751 0Z" fill="white"/>
</g>
</g>
<path d="M66.1555 172H64.7464C64.6631 171.595 64.5173 171.239 64.3089 170.932C64.1044 170.625 63.8544 170.367 63.5589 170.159C63.2673 169.947 62.9434 169.788 62.5874 169.682C62.2313 169.576 61.8601 169.523 61.4737 169.523C60.7692 169.523 60.1309 169.701 59.5589 170.057C58.9908 170.413 58.5381 170.938 58.201 171.631C57.8677 172.324 57.701 173.174 57.701 174.182C57.701 175.189 57.8677 176.04 58.201 176.733C58.5381 177.426 58.9908 177.951 59.5589 178.307C60.1309 178.663 60.7692 178.841 61.4737 178.841C61.8601 178.841 62.2313 178.788 62.5874 178.682C62.9434 178.576 63.2673 178.419 63.5589 178.21C63.8544 177.998 64.1044 177.739 64.3089 177.432C64.5173 177.121 64.6631 176.765 64.7464 176.364H66.1555C66.0495 176.958 65.8563 177.491 65.576 177.96C65.2957 178.43 64.9472 178.83 64.5305 179.159C64.1139 179.485 63.6461 179.733 63.1271 179.903C62.612 180.074 62.0608 180.159 61.4737 180.159C60.4813 180.159 59.5987 179.917 58.826 179.432C58.0533 178.947 57.4453 178.258 57.0021 177.364C56.5589 176.47 56.3374 175.409 56.3374 174.182C56.3374 172.955 56.5589 171.894 57.0021 171C57.4453 170.106 58.0533 169.417 58.826 168.932C59.5987 168.447 60.4813 168.205 61.4737 168.205C62.0608 168.205 62.612 168.29 63.1271 168.46C63.6461 168.631 64.1139 168.881 64.5305 169.21C64.9472 169.536 65.2957 169.934 65.576 170.403C65.8563 170.869 66.0495 171.402 66.1555 172ZM71.7962 180.182C71.0083 180.182 70.317 179.994 69.7223 179.619C69.1314 179.244 68.6693 178.72 68.3359 178.045C68.0064 177.371 67.8416 176.583 67.8416 175.682C67.8416 174.773 68.0064 173.979 68.3359 173.301C68.6693 172.623 69.1314 172.097 69.7223 171.722C70.317 171.347 71.0083 171.159 71.7962 171.159C72.584 171.159 73.2734 171.347 73.8643 171.722C74.459 172.097 74.9212 172.623 75.2507 173.301C75.584 173.979 75.7507 174.773 75.7507 175.682C75.7507 176.583 75.584 177.371 75.2507 178.045C74.9212 178.72 74.459 179.244 73.8643 179.619C73.2734 179.994 72.584 180.182 71.7962 180.182ZM71.7962 178.977C72.3946 178.977 72.8871 178.824 73.2734 178.517C73.6598 178.21 73.9458 177.807 74.1314 177.307C74.317 176.807 74.4098 176.265 74.4098 175.682C74.4098 175.098 74.317 174.555 74.1314 174.051C73.9458 173.547 73.6598 173.14 73.2734 172.83C72.8871 172.519 72.3946 172.364 71.7962 172.364C71.1977 172.364 70.7053 172.519 70.3189 172.83C69.9325 173.14 69.6465 173.547 69.4609 174.051C69.2753 174.555 69.1825 175.098 69.1825 175.682C69.1825 176.265 69.2753 176.807 69.4609 177.307C69.6465 177.807 69.9325 178.21 70.3189 178.517C70.7053 178.824 71.1977 178.977 71.7962 178.977ZM77.7976 183.273V171.273H79.093V172.659H79.2521C79.3506 172.508 79.487 172.314 79.6612 172.08C79.8393 171.841 80.093 171.629 80.4226 171.443C80.7559 171.254 81.2067 171.159 81.7749 171.159C82.5097 171.159 83.1574 171.343 83.718 171.71C84.2786 172.078 84.7161 172.598 85.0305 173.273C85.3449 173.947 85.5021 174.742 85.5021 175.659C85.5021 176.583 85.3449 177.384 85.0305 178.062C84.7161 178.737 84.2805 179.259 83.7237 179.631C83.1669 179.998 82.5249 180.182 81.7976 180.182C81.237 180.182 80.7881 180.089 80.451 179.903C80.1139 179.714 79.8544 179.5 79.6726 179.261C79.4908 179.019 79.3506 178.818 79.2521 178.659H79.1385V183.273H77.7976ZM79.1158 175.636C79.1158 176.295 79.2124 176.877 79.4055 177.381C79.5987 177.881 79.8809 178.273 80.2521 178.557C80.6233 178.837 81.0779 178.977 81.6158 178.977C82.1764 178.977 82.6442 178.83 83.0192 178.534C83.398 178.235 83.6821 177.833 83.8714 177.33C84.0646 176.822 84.1612 176.258 84.1612 175.636C84.1612 175.023 84.0665 174.47 83.8771 173.977C83.6915 173.481 83.4093 173.089 83.0305 172.801C82.6555 172.509 82.1839 172.364 81.6158 172.364C81.0703 172.364 80.612 172.502 80.2408 172.778C79.8696 173.051 79.5893 173.434 79.3999 173.926C79.2105 174.415 79.1158 174.985 79.1158 175.636ZM88.0987 183.273C87.8714 183.273 87.6688 183.254 87.4908 183.216C87.3127 183.182 87.1896 183.148 87.1214 183.114L87.4624 181.932C87.7881 182.015 88.076 182.045 88.326 182.023C88.576 182 88.7976 181.888 88.9908 181.688C89.1877 181.491 89.3677 181.17 89.5305 180.727L89.7805 180.045L86.5533 171.273H88.0078L90.4169 178.227H90.5078L92.9169 171.273H94.3714L90.6669 181.273C90.5002 181.723 90.2938 182.097 90.0476 182.392C89.8014 182.691 89.5154 182.913 89.1896 183.057C88.8677 183.201 88.504 183.273 88.0987 183.273ZM96.1413 180V171.273H97.4368V172.591H97.5277C97.6868 172.159 97.9747 171.809 98.3913 171.54C98.808 171.271 99.2777 171.136 99.8004 171.136C99.8989 171.136 100.022 171.138 100.17 171.142C100.317 171.146 100.429 171.152 100.505 171.159V172.523C100.46 172.511 100.355 172.494 100.192 172.472C100.033 172.445 99.8648 172.432 99.6868 172.432C99.2625 172.432 98.8838 172.521 98.5504 172.699C98.2209 172.873 97.9595 173.116 97.7663 173.426C97.5769 173.733 97.4822 174.083 97.4822 174.477V180H96.1413ZM102.094 180V171.273H103.435V180H102.094ZM102.776 169.818C102.515 169.818 102.29 169.729 102.1 169.551C101.915 169.373 101.822 169.159 101.822 168.909C101.822 168.659 101.915 168.445 102.1 168.267C102.29 168.089 102.515 168 102.776 168C103.038 168 103.261 168.089 103.447 168.267C103.636 168.445 103.731 168.659 103.731 168.909C103.731 169.159 103.636 169.373 103.447 169.551C103.261 169.729 103.038 169.818 102.776 169.818ZM109.414 183.455C108.766 183.455 108.21 183.371 107.744 183.205C107.278 183.042 106.889 182.826 106.579 182.557C106.272 182.292 106.028 182.008 105.846 181.705L106.914 180.955C107.035 181.114 107.189 181.295 107.374 181.5C107.56 181.708 107.814 181.888 108.136 182.04C108.461 182.195 108.888 182.273 109.414 182.273C110.119 182.273 110.7 182.102 111.158 181.761C111.617 181.42 111.846 180.886 111.846 180.159V178.386H111.732C111.634 178.545 111.494 178.742 111.312 178.977C111.134 179.208 110.876 179.415 110.539 179.597C110.206 179.775 109.755 179.864 109.187 179.864C108.482 179.864 107.85 179.697 107.289 179.364C106.732 179.03 106.291 178.545 105.965 177.909C105.643 177.273 105.482 176.5 105.482 175.591C105.482 174.697 105.639 173.919 105.954 173.256C106.268 172.589 106.706 172.074 107.266 171.71C107.827 171.343 108.475 171.159 109.21 171.159C109.778 171.159 110.228 171.254 110.562 171.443C110.899 171.629 111.156 171.841 111.335 172.08C111.516 172.314 111.656 172.508 111.755 172.659H111.891V171.273H113.187V180.25C113.187 181 113.016 181.61 112.675 182.08C112.338 182.553 111.884 182.9 111.312 183.119C110.744 183.343 110.111 183.455 109.414 183.455ZM109.369 178.659C109.906 178.659 110.361 178.536 110.732 178.29C111.103 178.044 111.386 177.689 111.579 177.227C111.772 176.765 111.869 176.212 111.869 175.568C111.869 174.939 111.774 174.384 111.585 173.903C111.395 173.422 111.115 173.045 110.744 172.773C110.372 172.5 109.914 172.364 109.369 172.364C108.8 172.364 108.327 172.508 107.948 172.795C107.573 173.083 107.291 173.47 107.102 173.955C106.916 174.439 106.823 174.977 106.823 175.568C106.823 176.174 106.918 176.71 107.107 177.176C107.3 177.638 107.585 178.002 107.96 178.267C108.338 178.528 108.808 178.659 109.369 178.659ZM116.982 174.75V180H115.641V168.364H116.982V172.636H117.096C117.3 172.186 117.607 171.828 118.016 171.562C118.429 171.294 118.978 171.159 119.664 171.159C120.259 171.159 120.78 171.278 121.227 171.517C121.674 171.752 122.02 172.114 122.266 172.602C122.516 173.087 122.641 173.705 122.641 174.455V180H121.3V174.545C121.3 173.852 121.121 173.316 120.761 172.938C120.405 172.555 119.91 172.364 119.278 172.364C118.838 172.364 118.444 172.456 118.096 172.642C117.751 172.828 117.478 173.098 117.278 173.455C117.081 173.811 116.982 174.242 116.982 174.75ZM128.89 171.273V172.409H124.367V171.273H128.89ZM125.685 169.182H127.026V177.5C127.026 177.879 127.081 178.163 127.191 178.352C127.305 178.538 127.449 178.663 127.623 178.727C127.801 178.788 127.988 178.818 128.185 178.818C128.333 178.818 128.454 178.811 128.549 178.795C128.644 178.777 128.719 178.761 128.776 178.75L129.049 179.955C128.958 179.989 128.831 180.023 128.668 180.057C128.505 180.095 128.299 180.114 128.049 180.114C127.67 180.114 127.299 180.032 126.935 179.869C126.576 179.706 126.276 179.458 126.038 179.125C125.803 178.792 125.685 178.371 125.685 177.864V169.182ZM142.112 181.364C140.952 181.364 139.928 181.205 139.038 180.886C138.147 180.572 137.399 180.108 136.793 179.494C136.187 178.881 135.729 178.129 135.418 177.239C135.108 176.348 134.952 175.33 134.952 174.182C134.952 173.072 135.11 172.08 135.424 171.205C135.742 170.33 136.202 169.587 136.805 168.977C137.411 168.364 138.146 167.896 139.009 167.574C139.877 167.252 140.858 167.091 141.952 167.091C143.017 167.091 143.949 167.265 144.748 167.614C145.551 167.958 146.221 168.426 146.759 169.017C147.301 169.604 147.706 170.265 147.975 171C148.248 171.735 148.384 172.492 148.384 173.273C148.384 173.822 148.358 174.379 148.305 174.943C148.252 175.508 148.14 176.027 147.969 176.5C147.799 176.97 147.536 177.348 147.18 177.636C146.827 177.924 146.35 178.068 145.748 178.068C145.483 178.068 145.191 178.027 144.873 177.943C144.555 177.86 144.272 177.722 144.026 177.528C143.78 177.335 143.634 177.076 143.589 176.75H143.521C143.43 176.97 143.29 177.178 143.1 177.375C142.915 177.572 142.67 177.729 142.367 177.847C142.068 177.964 141.702 178.015 141.271 178C140.778 177.981 140.344 177.871 139.969 177.67C139.594 177.466 139.28 177.189 139.026 176.841C138.776 176.489 138.587 176.081 138.458 175.619C138.333 175.153 138.271 174.652 138.271 174.114C138.271 173.602 138.346 173.134 138.498 172.71C138.649 172.286 138.86 171.915 139.129 171.597C139.401 171.278 139.719 171.025 140.083 170.835C140.451 170.642 140.846 170.523 141.271 170.477C141.649 170.439 141.994 170.456 142.305 170.528C142.615 170.597 142.871 170.701 143.072 170.841C143.272 170.977 143.399 171.129 143.452 171.295H143.521V170.659H144.725V175.795C144.725 176.114 144.814 176.394 144.992 176.636C145.17 176.879 145.43 177 145.771 177C146.157 177 146.452 176.867 146.657 176.602C146.865 176.337 147.007 175.928 147.083 175.375C147.163 174.822 147.202 174.114 147.202 173.25C147.202 172.742 147.132 172.242 146.992 171.75C146.856 171.254 146.647 170.79 146.367 170.358C146.091 169.926 145.74 169.545 145.316 169.216C144.892 168.886 144.394 168.629 143.822 168.443C143.254 168.254 142.608 168.159 141.884 168.159C140.994 168.159 140.197 168.297 139.492 168.574C138.791 168.847 138.195 169.246 137.702 169.773C137.214 170.295 136.841 170.932 136.583 171.682C136.329 172.428 136.202 173.277 136.202 174.227C136.202 175.193 136.329 176.051 136.583 176.801C136.841 177.551 137.219 178.184 137.719 178.699C138.223 179.214 138.846 179.606 139.589 179.875C140.331 180.14 141.187 180.273 142.157 180.273C142.574 180.273 142.985 180.233 143.39 180.153C143.795 180.074 144.153 179.987 144.464 179.892C144.774 179.797 144.998 179.727 145.134 179.682L145.452 180.727C145.218 180.826 144.911 180.924 144.532 181.023C144.157 181.121 143.755 181.203 143.327 181.267C142.903 181.331 142.498 181.364 142.112 181.364ZM141.452 176.841C141.96 176.841 142.371 176.739 142.685 176.534C143 176.33 143.229 176.021 143.373 175.608C143.517 175.195 143.589 174.674 143.589 174.045C143.589 173.409 143.509 172.913 143.35 172.557C143.191 172.201 142.956 171.951 142.646 171.807C142.335 171.663 141.952 171.591 141.498 171.591C141.066 171.591 140.697 171.705 140.39 171.932C140.087 172.155 139.854 172.455 139.691 172.83C139.532 173.201 139.452 173.606 139.452 174.045C139.452 174.53 139.517 174.987 139.646 175.415C139.774 175.839 139.985 176.184 140.276 176.449C140.568 176.71 140.96 176.841 141.452 176.841ZM150.369 180V178.977L154.21 174.773C154.66 174.28 155.031 173.852 155.323 173.489C155.615 173.121 155.831 172.777 155.971 172.455C156.115 172.129 156.187 171.788 156.187 171.432C156.187 171.023 156.088 170.669 155.891 170.369C155.698 170.07 155.433 169.839 155.096 169.676C154.759 169.513 154.38 169.432 153.96 169.432C153.513 169.432 153.122 169.525 152.789 169.71C152.46 169.892 152.204 170.148 152.022 170.477C151.844 170.807 151.755 171.193 151.755 171.636H150.414C150.414 170.955 150.571 170.356 150.886 169.841C151.2 169.326 151.628 168.924 152.17 168.636C152.715 168.348 153.327 168.205 154.005 168.205C154.687 168.205 155.291 168.348 155.817 168.636C156.344 168.924 156.757 169.312 157.056 169.801C157.355 170.29 157.505 170.833 157.505 171.432C157.505 171.86 157.427 172.278 157.272 172.688C157.121 173.093 156.855 173.545 156.477 174.045C156.102 174.542 155.581 175.148 154.914 175.864L152.3 178.659V178.75H157.71V180H150.369ZM163.852 180.159C162.996 180.159 162.266 179.926 161.664 179.46C161.062 178.991 160.602 178.311 160.283 177.42C159.965 176.527 159.806 175.447 159.806 174.182C159.806 172.924 159.965 171.85 160.283 170.96C160.605 170.066 161.067 169.384 161.67 168.915C162.276 168.441 163.003 168.205 163.852 168.205C164.7 168.205 165.425 168.441 166.028 168.915C166.634 169.384 167.096 170.066 167.414 170.96C167.736 171.85 167.897 172.924 167.897 174.182C167.897 175.447 167.738 176.527 167.42 177.42C167.102 178.311 166.641 178.991 166.039 179.46C165.437 179.926 164.708 180.159 163.852 180.159ZM163.852 178.909C164.7 178.909 165.359 178.5 165.829 177.682C166.299 176.864 166.533 175.697 166.533 174.182C166.533 173.174 166.425 172.316 166.21 171.608C165.997 170.9 165.691 170.36 165.289 169.989C164.891 169.617 164.412 169.432 163.852 169.432C163.011 169.432 162.353 169.847 161.88 170.676C161.406 171.502 161.17 172.67 161.17 174.182C161.17 175.189 161.276 176.045 161.488 176.75C161.7 177.455 162.005 177.991 162.403 178.358C162.804 178.725 163.287 178.909 163.852 178.909ZM170.056 180V178.977L173.897 174.773C174.348 174.28 174.719 173.852 175.011 173.489C175.302 173.121 175.518 172.777 175.658 172.455C175.802 172.129 175.874 171.788 175.874 171.432C175.874 171.023 175.776 170.669 175.579 170.369C175.386 170.07 175.121 169.839 174.783 169.676C174.446 169.513 174.067 169.432 173.647 169.432C173.2 169.432 172.81 169.525 172.477 169.71C172.147 169.892 171.891 170.148 171.71 170.477C171.531 170.807 171.442 171.193 171.442 171.636H170.102C170.102 170.955 170.259 170.356 170.573 169.841C170.888 169.326 171.316 168.924 171.857 168.636C172.403 168.348 173.014 168.205 173.692 168.205C174.374 168.205 174.978 168.348 175.505 168.636C176.031 168.924 176.444 169.312 176.744 169.801C177.043 170.29 177.192 170.833 177.192 171.432C177.192 171.86 177.115 172.278 176.96 172.688C176.808 173.093 176.543 173.545 176.164 174.045C175.789 174.542 175.268 175.148 174.602 175.864L171.988 178.659V178.75H177.397V180H170.056ZM179.221 177.614V176.455L184.335 168.364H185.175V170.159H184.607L180.744 176.273V176.364H187.63V177.614H179.221ZM184.698 180V177.261V176.722V168.364H186.039V180H184.698ZM203.827 172H202.418C202.335 171.595 202.189 171.239 201.981 170.932C201.776 170.625 201.526 170.367 201.231 170.159C200.939 169.947 200.615 169.788 200.259 169.682C199.903 169.576 199.532 169.523 199.146 169.523C198.441 169.523 197.803 169.701 197.231 170.057C196.663 170.413 196.21 170.938 195.873 171.631C195.54 172.324 195.373 173.174 195.373 174.182C195.373 175.189 195.54 176.04 195.873 176.733C196.21 177.426 196.663 177.951 197.231 178.307C197.803 178.663 198.441 178.841 199.146 178.841C199.532 178.841 199.903 178.788 200.259 178.682C200.615 178.576 200.939 178.419 201.231 178.21C201.526 177.998 201.776 177.739 201.981 177.432C202.189 177.121 202.335 176.765 202.418 176.364H203.827C203.721 176.958 203.528 177.491 203.248 177.96C202.968 178.43 202.619 178.83 202.202 179.159C201.786 179.485 201.318 179.733 200.799 179.903C200.284 180.074 199.733 180.159 199.146 180.159C198.153 180.159 197.271 179.917 196.498 179.432C195.725 178.947 195.117 178.258 194.674 177.364C194.231 176.47 194.009 175.409 194.009 174.182C194.009 172.955 194.231 171.894 194.674 171C195.117 170.106 195.725 169.417 196.498 168.932C197.271 168.447 198.153 168.205 199.146 168.205C199.733 168.205 200.284 168.29 200.799 168.46C201.318 168.631 201.786 168.881 202.202 169.21C202.619 169.536 202.968 169.934 203.248 170.403C203.528 170.869 203.721 171.402 203.827 172ZM207.513 168.364V180H206.104V168.364H207.513ZM210.816 180H209.339L213.612 168.364H215.066L219.339 180H217.862L214.384 170.205H214.293L210.816 180ZM211.362 175.455H217.316V176.705H211.362V175.455ZM221.629 180H220.151L224.424 168.364H225.879L230.151 180H228.674L225.197 170.205H225.106L221.629 180ZM222.174 175.455H228.129V176.705H222.174V175.455ZM241.191 168.364V180H239.827L233.487 170.864H233.373V180H231.964V168.364H233.327L239.691 177.523H239.805V168.364H241.191ZM244.806 180.091C244.526 180.091 244.285 179.991 244.085 179.79C243.884 179.589 243.783 179.348 243.783 179.068C243.783 178.788 243.884 178.547 244.085 178.347C244.285 178.146 244.526 178.045 244.806 178.045C245.086 178.045 245.327 178.146 245.528 178.347C245.728 178.547 245.829 178.788 245.829 179.068C245.829 179.254 245.781 179.424 245.687 179.58C245.596 179.735 245.473 179.86 245.317 179.955C245.166 180.045 244.996 180.091 244.806 180.091ZM253.394 180H251.917L256.19 168.364H257.644L261.917 180H260.44L256.962 170.205H256.871L253.394 180ZM253.94 175.455H259.894V176.705H253.94V175.455ZM264.888 168.364V180H263.548V168.364H264.888ZM268.685 168.364V180H267.344V168.364H268.685ZM275.641 180V171.273H276.937V172.591H277.028C277.187 172.159 277.475 171.809 277.891 171.54C278.308 171.271 278.778 171.136 279.3 171.136C279.399 171.136 279.522 171.138 279.67 171.142C279.817 171.146 279.929 171.152 280.005 171.159V172.523C279.96 172.511 279.855 172.494 279.692 172.472C279.533 172.445 279.365 172.432 279.187 172.432C278.763 172.432 278.384 172.521 278.05 172.699C277.721 172.873 277.46 173.116 277.266 173.426C277.077 173.733 276.982 174.083 276.982 174.477V180H275.641ZM281.594 180V171.273H282.935V180H281.594ZM282.276 169.818C282.015 169.818 281.79 169.729 281.6 169.551C281.415 169.373 281.322 169.159 281.322 168.909C281.322 168.659 281.415 168.445 281.6 168.267C281.79 168.089 282.015 168 282.276 168C282.538 168 282.761 168.089 282.947 168.267C283.136 168.445 283.231 168.659 283.231 168.909C283.231 169.159 283.136 169.373 282.947 169.551C282.761 169.729 282.538 169.818 282.276 169.818ZM288.914 183.455C288.266 183.455 287.71 183.371 287.244 183.205C286.778 183.042 286.389 182.826 286.079 182.557C285.772 182.292 285.528 182.008 285.346 181.705L286.414 180.955C286.535 181.114 286.689 181.295 286.874 181.5C287.06 181.708 287.314 181.888 287.636 182.04C287.961 182.195 288.388 182.273 288.914 182.273C289.619 182.273 290.2 182.102 290.658 181.761C291.117 181.42 291.346 180.886 291.346 180.159V178.386H291.232C291.134 178.545 290.994 178.742 290.812 178.977C290.634 179.208 290.376 179.415 290.039 179.597C289.706 179.775 289.255 179.864 288.687 179.864C287.982 179.864 287.35 179.697 286.789 179.364C286.232 179.03 285.791 178.545 285.465 177.909C285.143 177.273 284.982 176.5 284.982 175.591C284.982 174.697 285.139 173.919 285.454 173.256C285.768 172.589 286.206 172.074 286.766 171.71C287.327 171.343 287.975 171.159 288.71 171.159C289.278 171.159 289.728 171.254 290.062 171.443C290.399 171.629 290.656 171.841 290.835 172.08C291.016 172.314 291.156 172.508 291.255 172.659H291.391V171.273H292.687V180.25C292.687 181 292.516 181.61 292.175 182.08C291.838 182.553 291.384 182.9 290.812 183.119C290.244 183.343 289.611 183.455 288.914 183.455ZM288.869 178.659C289.406 178.659 289.861 178.536 290.232 178.29C290.603 178.044 290.886 177.689 291.079 177.227C291.272 176.765 291.369 176.212 291.369 175.568C291.369 174.939 291.274 174.384 291.085 173.903C290.895 173.422 290.615 173.045 290.244 172.773C289.872 172.5 289.414 172.364 288.869 172.364C288.3 172.364 287.827 172.508 287.448 172.795C287.073 173.083 286.791 173.47 286.602 173.955C286.416 174.439 286.323 174.977 286.323 175.568C286.323 176.174 286.418 176.71 286.607 177.176C286.8 177.638 287.085 178.002 287.46 178.267C287.838 178.528 288.308 178.659 288.869 178.659ZM296.482 174.75V180H295.141V168.364H296.482V172.636H296.596C296.8 172.186 297.107 171.828 297.516 171.562C297.929 171.294 298.478 171.159 299.164 171.159C299.759 171.159 300.28 171.278 300.727 171.517C301.174 171.752 301.52 172.114 301.766 172.602C302.016 173.087 302.141 173.705 302.141 174.455V180H300.8V174.545C300.8 173.852 300.621 173.316 300.261 172.938C299.905 172.555 299.41 172.364 298.778 172.364C298.338 172.364 297.944 172.456 297.596 172.642C297.251 172.828 296.978 173.098 296.778 173.455C296.581 173.811 296.482 174.242 296.482 174.75ZM308.39 171.273V172.409H303.867V171.273H308.39ZM305.185 169.182H306.526V177.5C306.526 177.879 306.581 178.163 306.691 178.352C306.805 178.538 306.949 178.663 307.123 178.727C307.301 178.788 307.488 178.818 307.685 178.818C307.833 178.818 307.954 178.811 308.049 178.795C308.144 178.777 308.219 178.761 308.276 178.75L308.549 179.955C308.458 179.989 308.331 180.023 308.168 180.057C308.005 180.095 307.799 180.114 307.549 180.114C307.17 180.114 306.799 180.032 306.435 179.869C306.076 179.706 305.776 179.458 305.538 179.125C305.303 178.792 305.185 178.371 305.185 177.864V169.182ZM316.433 173.227L315.228 173.568C315.152 173.367 315.04 173.172 314.893 172.983C314.749 172.79 314.552 172.631 314.302 172.506C314.052 172.381 313.732 172.318 313.342 172.318C312.808 172.318 312.362 172.441 312.006 172.688C311.654 172.93 311.478 173.239 311.478 173.614C311.478 173.947 311.599 174.21 311.842 174.403C312.084 174.597 312.463 174.758 312.978 174.886L314.273 175.205C315.054 175.394 315.635 175.684 316.018 176.074C316.4 176.46 316.592 176.958 316.592 177.568C316.592 178.068 316.448 178.515 316.16 178.909C315.876 179.303 315.478 179.614 314.967 179.841C314.455 180.068 313.861 180.182 313.183 180.182C312.292 180.182 311.556 179.989 310.972 179.602C310.389 179.216 310.02 178.652 309.864 177.909L311.137 177.591C311.258 178.061 311.487 178.413 311.825 178.648C312.165 178.883 312.611 179 313.16 179C313.785 179 314.281 178.867 314.648 178.602C315.02 178.333 315.205 178.011 315.205 177.636C315.205 177.333 315.099 177.08 314.887 176.875C314.675 176.667 314.349 176.511 313.91 176.409L312.455 176.068C311.656 175.879 311.069 175.585 310.694 175.188C310.323 174.786 310.137 174.284 310.137 173.682C310.137 173.189 310.275 172.754 310.552 172.375C310.832 171.996 311.213 171.699 311.694 171.483C312.179 171.267 312.728 171.159 313.342 171.159C314.205 171.159 314.883 171.348 315.376 171.727C315.872 172.106 316.224 172.606 316.433 173.227ZM323.11 180V171.273H324.406V172.591H324.496C324.656 172.159 324.943 171.809 325.36 171.54C325.777 171.271 326.246 171.136 326.769 171.136C326.868 171.136 326.991 171.138 327.138 171.142C327.286 171.146 327.398 171.152 327.474 171.159V172.523C327.428 172.511 327.324 172.494 327.161 172.472C327.002 172.445 326.834 172.432 326.656 172.432C326.231 172.432 325.853 172.521 325.519 172.699C325.19 172.873 324.928 173.116 324.735 173.426C324.546 173.733 324.451 174.083 324.451 174.477V180H323.11ZM332.457 180.182C331.616 180.182 330.89 179.996 330.281 179.625C329.674 179.25 329.207 178.727 328.877 178.057C328.551 177.383 328.388 176.598 328.388 175.705C328.388 174.811 328.551 174.023 328.877 173.341C329.207 172.655 329.665 172.121 330.252 171.739C330.843 171.352 331.532 171.159 332.32 171.159C332.775 171.159 333.224 171.235 333.667 171.386C334.11 171.538 334.513 171.784 334.877 172.125C335.241 172.462 335.531 172.909 335.746 173.466C335.962 174.023 336.07 174.708 336.07 175.523V176.091H329.343V174.932H334.707C334.707 174.439 334.608 174 334.411 173.614C334.218 173.227 333.942 172.922 333.582 172.699C333.226 172.475 332.805 172.364 332.32 172.364C331.786 172.364 331.324 172.496 330.934 172.761C330.548 173.023 330.25 173.364 330.042 173.784C329.834 174.205 329.729 174.655 329.729 175.136V175.909C329.729 176.568 329.843 177.127 330.07 177.585C330.301 178.04 330.621 178.386 331.031 178.625C331.44 178.86 331.915 178.977 332.457 178.977C332.809 178.977 333.127 178.928 333.411 178.83C333.699 178.727 333.947 178.576 334.156 178.375C334.364 178.17 334.525 177.917 334.638 177.614L335.934 177.977C335.798 178.417 335.568 178.803 335.246 179.136C334.924 179.466 334.527 179.723 334.053 179.909C333.58 180.091 333.048 180.182 332.457 180.182ZM344.292 173.227L343.087 173.568C343.012 173.367 342.9 173.172 342.752 172.983C342.608 172.79 342.411 172.631 342.161 172.506C341.911 172.381 341.591 172.318 341.201 172.318C340.667 172.318 340.222 172.441 339.866 172.688C339.513 172.93 339.337 173.239 339.337 173.614C339.337 173.947 339.459 174.21 339.701 174.403C339.943 174.597 340.322 174.758 340.837 174.886L342.133 175.205C342.913 175.394 343.495 175.684 343.877 176.074C344.26 176.46 344.451 176.958 344.451 177.568C344.451 178.068 344.307 178.515 344.019 178.909C343.735 179.303 343.337 179.614 342.826 179.841C342.315 180.068 341.72 180.182 341.042 180.182C340.152 180.182 339.415 179.989 338.832 179.602C338.248 179.216 337.879 178.652 337.724 177.909L338.996 177.591C339.118 178.061 339.347 178.413 339.684 178.648C340.025 178.883 340.47 179 341.019 179C341.644 179 342.14 178.867 342.508 178.602C342.879 178.333 343.065 178.011 343.065 177.636C343.065 177.333 342.959 177.08 342.746 176.875C342.534 176.667 342.209 176.511 341.769 176.409L340.315 176.068C339.515 175.879 338.928 175.585 338.553 175.188C338.182 174.786 337.996 174.284 337.996 173.682C337.996 173.189 338.135 172.754 338.411 172.375C338.692 171.996 339.072 171.699 339.553 171.483C340.038 171.267 340.587 171.159 341.201 171.159C342.065 171.159 342.743 171.348 343.235 171.727C343.731 172.106 344.084 172.606 344.292 173.227ZM350.129 180.182C349.288 180.182 348.562 179.996 347.952 179.625C347.346 179.25 346.879 178.727 346.549 178.057C346.223 177.383 346.06 176.598 346.06 175.705C346.06 174.811 346.223 174.023 346.549 173.341C346.879 172.655 347.337 172.121 347.924 171.739C348.515 171.352 349.204 171.159 349.992 171.159C350.447 171.159 350.896 171.235 351.339 171.386C351.782 171.538 352.185 171.784 352.549 172.125C352.913 172.462 353.202 172.909 353.418 173.466C353.634 174.023 353.742 174.708 353.742 175.523V176.091H347.015V174.932H352.379C352.379 174.439 352.28 174 352.083 173.614C351.89 173.227 351.613 172.922 351.254 172.699C350.897 172.475 350.477 172.364 349.992 172.364C349.458 172.364 348.996 172.496 348.606 172.761C348.219 173.023 347.922 173.364 347.714 173.784C347.505 174.205 347.401 174.655 347.401 175.136V175.909C347.401 176.568 347.515 177.127 347.742 177.585C347.973 178.04 348.293 178.386 348.702 178.625C349.112 178.86 349.587 178.977 350.129 178.977C350.481 178.977 350.799 178.928 351.083 178.83C351.371 178.727 351.619 178.576 351.827 178.375C352.036 178.17 352.197 177.917 352.31 177.614L353.606 177.977C353.469 178.417 353.24 178.803 352.918 179.136C352.596 179.466 352.199 179.723 351.725 179.909C351.252 180.091 350.719 180.182 350.129 180.182ZM355.782 180V171.273H357.077V172.591H357.168C357.327 172.159 357.615 171.809 358.032 171.54C358.449 171.271 358.918 171.136 359.441 171.136C359.54 171.136 359.663 171.138 359.81 171.142C359.958 171.146 360.07 171.152 360.146 171.159V172.523C360.1 172.511 359.996 172.494 359.833 172.472C359.674 172.445 359.505 172.432 359.327 172.432C358.903 172.432 358.524 172.521 358.191 172.699C357.862 172.873 357.6 173.116 357.407 173.426C357.218 173.733 357.123 174.083 357.123 174.477V180H355.782ZM369.137 171.273L365.91 180H364.546L361.319 171.273H362.773L365.183 178.227H365.273L367.683 171.273H369.137ZM374.254 180.182C373.413 180.182 372.687 179.996 372.077 179.625C371.471 179.25 371.004 178.727 370.674 178.057C370.348 177.383 370.185 176.598 370.185 175.705C370.185 174.811 370.348 174.023 370.674 173.341C371.004 172.655 371.462 172.121 372.049 171.739C372.64 171.352 373.329 171.159 374.117 171.159C374.572 171.159 375.021 171.235 375.464 171.386C375.907 171.538 376.31 171.784 376.674 172.125C377.038 172.462 377.327 172.909 377.543 173.466C377.759 174.023 377.867 174.708 377.867 175.523V176.091H371.14V174.932H376.504C376.504 174.439 376.405 174 376.208 173.614C376.015 173.227 375.738 172.922 375.379 172.699C375.022 172.475 374.602 172.364 374.117 172.364C373.583 172.364 373.121 172.496 372.731 172.761C372.344 173.023 372.047 173.364 371.839 173.784C371.63 174.205 371.526 174.655 371.526 175.136V175.909C371.526 176.568 371.64 177.127 371.867 177.585C372.098 178.04 372.418 178.386 372.827 178.625C373.237 178.86 373.712 178.977 374.254 178.977C374.606 178.977 374.924 178.928 375.208 178.83C375.496 178.727 375.744 178.576 375.952 178.375C376.161 178.17 376.322 177.917 376.435 177.614L377.731 177.977C377.594 178.417 377.365 178.803 377.043 179.136C376.721 179.466 376.324 179.723 375.85 179.909C375.377 180.091 374.844 180.182 374.254 180.182ZM383.202 180.182C382.475 180.182 381.833 179.998 381.276 179.631C380.719 179.259 380.284 178.737 379.969 178.062C379.655 177.384 379.498 176.583 379.498 175.659C379.498 174.742 379.655 173.947 379.969 173.273C380.284 172.598 380.721 172.078 381.282 171.71C381.843 171.343 382.49 171.159 383.225 171.159C383.793 171.159 384.242 171.254 384.572 171.443C384.905 171.629 385.159 171.841 385.333 172.08C385.511 172.314 385.649 172.508 385.748 172.659H385.862V168.364H387.202V180H385.907V178.659H385.748C385.649 178.818 385.509 179.019 385.327 179.261C385.146 179.5 384.886 179.714 384.549 179.903C384.212 180.089 383.763 180.182 383.202 180.182ZM383.384 178.977C383.922 178.977 384.377 178.837 384.748 178.557C385.119 178.273 385.401 177.881 385.594 177.381C385.788 176.877 385.884 176.295 385.884 175.636C385.884 174.985 385.79 174.415 385.6 173.926C385.411 173.434 385.13 173.051 384.759 172.778C384.388 172.502 383.93 172.364 383.384 172.364C382.816 172.364 382.343 172.509 381.964 172.801C381.589 173.089 381.307 173.481 381.117 173.977C380.932 174.47 380.839 175.023 380.839 175.636C380.839 176.258 380.933 176.822 381.123 177.33C381.316 177.833 381.6 178.235 381.975 178.534C382.354 178.83 382.824 178.977 383.384 178.977Z" fill="white"/>
<defs>
<clipPath id="clip0_255_218">
<rect width="414" height="139" fill="white" transform="translate(15)"/>
</clipPath>
</defs>
</svg>
