<svg width="320" height="107" viewBox="0 0 320 107" fill="none" xmlns="http://www.w3.org/2000/svg">
<g clip-path="url(#clip0_255_7)">
<mask id="mask0_255_7" style="mask-type:luminance" maskUnits="userSpaceOnUse" x="0" y="0" width="320" height="107">
<path d="M320 0H0V107H320V0Z" fill="white"/>
</mask>
<g mask="url(#mask0_255_7)">
<path d="M124.686 70.9257C120.124 80.1459 112.014 87.7227 97.0492 87.7227C80.4171 87.7227 65.9473 74.5483 65.9473 58.2452C65.9473 41.9422 81.0784 28.7793 97.8134 28.7793C106.941 28.7793 112.434 31.0941 119.617 35.6964L117.083 45.0824H116.489C110.319 35.5305 100.253 28.4515 89.1925 30.7585C74.7385 33.8022 69.4994 50.4332 74.0613 65.008C78.6272 79.4978 90.7963 87.0746 105.67 84.8526C113.277 83.78 119.787 78.9231 124.096 70.6905L124.686 70.9257Z" fill="white"/>
<path d="M145.644 20.3689L145.137 21.1098C143.109 20.3689 138.63 18.4093 132.544 14.9372C130.516 13.7799 130.599 12.2367 131.356 11.2299C132.12 10.1612 133.641 9.66745 135.316 11.1489C140.575 15.6625 144.04 18.8876 145.644 20.3689ZM143.026 35.1096V81.7891C143.026 84.6708 143.616 85.9054 144.97 86.6461V87.2208H134.488V86.6461C135.755 85.9054 136.349 84.6708 136.349 81.7891V35.1096C136.349 32.2279 135.755 30.9933 134.488 30.2488V29.593H144.97V30.2488C143.616 30.9933 143.026 32.2279 143.026 35.1096Z" fill="white"/>
<path d="M203.729 87.2251H190.696V86.6464C192.893 84.5054 192.215 81.6313 189.848 75.6132L185.71 65.1584H164.749L162.468 71.4159C159.772 78.9309 159.34 82.9468 162.888 86.6464V87.2213H152.917V86.6464C156.552 82.943 159 79.1545 161.791 71.4159L174.464 36.6686L171.691 29.5896H178.368L194.849 71.4159C198.314 79.6484 200.513 82.943 203.723 86.6464L203.729 87.2251ZM185.473 64.5027L174.82 37.5791L165.003 64.5027H185.473Z" fill="white"/>
<path d="M259.164 87.2251H246.131V86.6464C248.33 84.5054 247.656 81.6313 245.288 75.6132L241.146 65.1584H220.186L217.904 71.4159C215.208 78.9309 214.777 82.9468 218.329 86.6464V87.2213H208.353V86.6464C211.988 82.943 214.439 79.1545 217.228 71.4159L229.899 36.6686L227.128 29.5896H233.805L250.286 71.4159C253.751 79.6484 255.948 82.943 259.16 86.6464L259.164 87.2251ZM240.908 64.5027L230.255 37.5791L220.439 64.5027H240.908Z" fill="white"/>
<path d="M320.003 29.5938V30.2497C317.211 31.65 314.677 35.9322 314.677 39.4736V87.2255H313.417L273.188 37.0741V77.3456C273.188 80.8872 275.723 85.2502 278.597 86.6507V87.2255H267.181V86.6468C270.052 85.2465 272.59 80.8833 272.59 77.3417V36.3449L267.181 29.5938H275.714L313.999 76.8519V39.4736C313.999 35.9322 311.465 31.65 308.677 30.2497V29.5938H320.003Z" fill="white"/>
<path d="M25.3867 31.6304C25.3867 31.6304 28.6141 41.109 40.1258 39.1531C37.0932 35.3811 32.7261 32.8461 27.8776 32.0433L25.3867 31.6304Z" fill="white"/>
<path d="M50.7634 0H0V31.5684L14.9569 26.9584L0 36.7533V69.6334L16.2875 60.8222L0 76.913V107.004H8.02693L26.639 83.6602L17.2101 107.004H50.7713V97.3593L37.7468 92.8188C37.3648 92.6853 37.0426 92.4261 36.8358 92.0859C36.6292 91.7457 36.5507 91.3459 36.6142 90.9554L37.1289 87.8344C37.2151 87.3015 37.4763 86.8101 37.8732 86.4337C38.2701 86.0575 38.7814 85.8167 39.3308 85.7474L50.7634 84.2776V63.6769L39.2793 62.7587C39.1962 62.7524 39.1131 62.7684 39.0388 62.8051C38.9645 62.8416 38.9018 62.8973 38.8578 62.9661C38.8136 63.0349 38.7897 63.1142 38.7886 63.1952C38.7876 63.2764 38.8093 63.3562 38.8516 63.4262C40.2228 65.5334 42.1554 67.2386 44.4432 68.3603L47.5398 69.8802C48.0745 70.1426 48.5239 70.5444 48.8378 71.041C49.1518 71.5377 49.318 72.1093 49.3179 72.6926V79.2084C49.3175 79.5523 49.205 79.8872 48.9965 80.1646C48.7878 80.4419 48.4941 80.6476 48.1576 80.7515L38.4041 83.7876C37.9694 83.9211 37.5019 83.9123 37.0729 83.7625C36.6438 83.6127 36.2768 83.3302 36.028 82.9581L30.8325 75.1576C30.5708 74.7606 30.4108 74.3079 30.3661 73.838C30.3214 73.368 30.3929 72.8945 30.5751 72.4572C32.5987 67.6542 34.646 66.0457 34.646 66.0457C32.1433 66.7245 29.894 68.6033 27.9775 70.8717L25.34 66.9096C24.8451 66.169 24.3818 65.4128 23.9422 64.6491C23.5972 64.0475 23.4796 63.3472 23.6095 62.6701C24.7976 56.5592 26.8766 54.2986 26.8766 54.2986C24.6985 55.2747 22.9165 57.2306 21.4474 59.5182C19.519 54.7246 18.529 49.6213 18.5289 44.4728V37.7564C18.5287 27.4815 22.5197 17.5872 29.7 10.0611C30.3954 9.34397 31.2874 8.83623 32.2701 8.59826C33.2528 8.36028 34.2849 8.40206 35.244 8.71863L50.7831 13.7338L50.7634 0Z" fill="white"/>
</g>
</g>
<defs>
<clipPath id="clip0_255_7">
<rect width="320" height="107" fill="white"/>
</clipPath>
</defs>
</svg>
