<svg width="94" height="144" viewBox="0 0 94 144" fill="none" xmlns="http://www.w3.org/2000/svg">
<path d="M46.8896 0C0.862797 23.1326 0.862793 26.7677 0.862793 55.0777V88.1242C0.862793 116.434 0.862793 120.069 46.9997 143.202C93.1367 120.069 93.1367 116.434 93.1367 88.1242V55.0777C93.0266 26.7677 93.0266 23.1326 46.8896 0Z" fill="white"/>
<path d="M46.8894 136.703L46.6692 136.593C27.5097 126.899 16.1681 120.4 11.103 114.011C6.69849 108.503 6.58838 102.445 6.58838 88.1244V55.0778C6.58838 40.7576 6.80861 34.699 11.103 29.1913C16.1681 22.8023 27.5097 16.3031 46.6692 6.60942L46.8894 6.49927L47.2197 6.60942C66.3792 16.3031 77.7208 22.8023 82.7859 29.1913C87.0803 34.699 87.3005 40.7576 87.3005 55.0778V88.1244C87.3005 102.445 87.0803 108.393 82.7859 114.011C77.7208 120.4 66.3792 126.899 47.2197 136.593L46.8894 136.703ZM46.8894 7.71098C28.0602 17.2945 16.8288 23.6835 11.9839 29.8522C7.79961 35.1397 7.6895 40.9779 7.6895 55.0778V88.1244C7.6895 102.114 7.90973 108.062 11.9839 113.35C16.8288 119.629 28.0602 125.908 46.8894 135.491C65.7186 125.908 76.95 119.629 81.7949 113.35C85.9792 108.062 86.0893 102.224 86.0893 88.1244V55.0778C86.0893 41.088 85.9792 35.1397 81.7949 29.8522C76.95 23.6835 65.8287 17.2945 46.8894 7.71098Z" fill="#124068"/>
<path d="M53.0563 76.1174L30.9237 40.8677C23.6564 48.7989 23.2159 57.2808 27.1799 63.3394C32.4653 71.4909 38.9619 81.515 41.8248 85.4806C43.0361 87.1329 45.7889 90.768 42.0451 91.0985C40.8338 91.2086 38.6316 91.2087 36.3192 91.2087C31.6945 91.2087 26.299 91.0985 26.299 91.0985L36.5395 97.818C39.6226 96.386 43.0361 95.5047 46.4495 95.5047C51.9551 95.5047 56.69 98.0383 60.5439 102.665L66.7102 98.4789C57.3506 98.0383 56.4697 93.0813 57.1304 89.1157C57.7911 85.1501 60.3237 82.5064 62.9664 82.2861H63.2967C64.8383 82.2861 65.3888 83.4978 65.3888 85.2603L67.0405 84.9298C67.7012 83.4978 68.1416 81.9556 68.3618 80.3033C68.8023 77.4392 67.0405 74.2447 61.7551 74.2447C60.9843 74.2447 60.2135 74.3549 59.3326 74.465C57.4607 74.9057 55.1484 75.4564 53.0563 76.1174Z" fill="#124068"/>
<path d="M53.7166 74.3549C55.5885 73.8041 57.5705 73.2533 59.4424 73.033C59.7727 73.033 60.1031 72.9229 60.4334 72.9229C62.5255 69.7284 64.7278 66.4237 66.7098 63.3394C70.6738 57.2808 70.2334 48.7989 63.0761 40.8677L47.7705 64.9917L53.7166 74.3549Z" fill="#124068"/>
<path d="M36.0313 111.708H38.0097V122.361H36.0313V111.708ZM30.5223 122.361H28.544V111.708H30.5223V122.361ZM36.1835 117.796H30.3549V116.106H36.1835V117.796Z" fill="#124068"/>
<path d="M41.8852 122.361L38.3546 111.708H40.409L43.5592 121.341H42.5396L45.8115 111.708H47.6377L50.8183 121.341H49.8291L53.0553 111.708H54.9424L51.4118 122.361H49.3117L46.405 113.671H46.9528L44.0005 122.361H41.8852Z" fill="#124068"/>
<path d="M55.0508 122.361V111.708H56.6792L61.3359 119.485H60.4837L65.0644 111.708H66.6927L66.708 122.361H64.8361L64.8209 114.645H65.2166L61.3207 121.144H60.4381L56.4813 114.645H56.9379V122.361H55.0508Z" fill="#124068"/>
</svg>
