<svg width="324" height="303" viewBox="0 0 324 303" fill="none" xmlns="http://www.w3.org/2000/svg">
<path d="M163.033 0C101 31.1769 101 36.0762 101 74.2308V118.769C101 156.924 101 161.823 163.181 193C225.362 161.823 225.362 156.924 225.362 118.769V74.2308C225.214 36.0762 225.214 31.1769 163.033 0Z" fill="white"/>
<path d="M163.316 184.482L163.019 184.333C137.197 171.268 121.911 162.509 115.085 153.898C109.148 146.475 109 138.31 109 119.01V74.4715C109 55.1715 109.297 47.0062 115.085 39.5831C121.911 30.9723 137.197 22.2131 163.019 9.14846L163.316 9L163.761 9.14846C189.583 22.2131 204.868 30.9723 211.695 39.5831C217.483 47.0062 217.78 55.1715 217.78 74.4715V119.01C217.78 138.31 217.483 146.327 211.695 153.898C204.868 162.509 189.583 171.268 163.761 184.333L163.316 184.482ZM163.316 10.6331C137.939 23.5492 122.802 32.16 116.272 40.4738C110.632 47.6 110.484 55.4685 110.484 74.4715V119.01C110.484 137.865 110.781 145.882 116.272 153.008C122.802 161.47 137.939 169.932 163.316 182.848C188.693 169.932 203.83 161.47 210.359 153.008C215.999 145.882 216.147 138.013 216.147 119.01V74.4715C216.147 55.6169 215.999 47.6 210.359 40.4738C203.83 32.16 188.841 23.5492 163.316 10.6331Z" fill="#124068"/>
<path d="M171.626 102.828L141.797 55.3198C132.003 66.0091 131.409 77.4406 136.752 85.606C143.875 96.5921 152.631 110.102 156.489 115.447C158.122 117.674 161.832 122.573 156.786 123.018C155.154 123.167 152.186 123.167 149.069 123.167C142.836 123.167 135.564 123.018 135.564 123.018L149.366 132.074C153.521 130.144 158.122 128.957 162.722 128.957C170.142 128.957 176.524 132.371 181.718 138.607L190.028 132.965C177.414 132.371 176.227 125.691 177.117 120.346C178.008 115.001 181.421 111.438 184.983 111.141H185.428C187.506 111.141 188.248 112.774 188.248 115.15L190.474 114.704C191.364 112.774 191.958 110.696 192.255 108.469C192.848 104.609 190.474 100.304 183.35 100.304C182.311 100.304 181.273 100.452 180.085 100.601C177.563 101.194 174.446 101.937 171.626 102.828Z" fill="#124068"/>
<path d="M172.516 100.452C175.039 99.7098 177.71 98.9675 180.233 98.6706C180.678 98.6706 181.123 98.5221 181.568 98.5221C184.388 94.2167 187.356 89.7629 190.027 85.606C195.37 77.4406 194.776 66.0091 185.13 55.3198L164.502 87.8329L172.516 100.452Z" fill="#124068"/>
<path d="M147.723 148.588H149.701V159.241H147.723V148.588ZM142.214 159.241H140.235V148.588H142.214V159.241ZM147.875 154.675H142.046V152.986H147.875V154.675Z" fill="#124068"/>
<path d="M158.226 159.241L154.696 148.588H156.75L159.9 158.221H158.881L162.153 148.588H163.979L167.16 158.221H166.17L169.397 148.588H171.284L167.753 159.241H165.653L162.746 150.551H163.294L160.342 159.241H158.226Z" fill="#124068"/>
<path d="M176.345 159.241V148.588H177.973L182.63 156.364H181.778L186.358 148.588H187.987L188.002 159.241H186.13L186.115 151.525H186.511L182.615 158.023H181.732L177.775 151.525H178.232V159.241H176.345Z" fill="#124068"/>
<path d="M70.0453 251.499L71.7021 257.18H71.7839L73.5633 251.499H74.9951L76.7643 257.18H76.8461L78.5131 251.499H80.5584L77.787 260.143H75.9257L74.2894 255.052H74.2076L72.5918 260.143H70.7817L68 251.499H70.0453Z" fill="#FEFEFE"/>
<path d="M88.8106 256.457H85.5994V258.493H91.2344V260.122H83.6973V251.479H90.9378V253.128H85.5994V254.808H88.8106V256.457Z" fill="#FEFEFE"/>
<path d="M97.4119 251.499H99.0482L103.067 260.143H101.022L100.224 258.32H96.1336L95.3461 260.143H93.3008L97.4119 251.499ZM96.8188 256.824H99.5391L98.2198 253.769H98.138L96.8188 256.824Z" fill="#FEFEFE"/>
<path d="M107.935 251.499V258.514H113.049V260.143H106.033V251.499H107.935Z" fill="#FEFEFE"/>
<path d="M114.102 251.499H122.283V253.148H119.133V260.143H117.251V253.148H114.102V251.499Z" fill="#FEFEFE"/>
<path d="M125.443 260.143V251.499H127.315V254.706H131.406V251.499H133.318V260.143H131.457V256.304H127.315V260.143H125.443Z" fill="#FEFEFE"/>
<path d="M149.354 260.143V255.134H149.283L146.849 259.206H146.317L143.883 255.134H143.822V260.143H141.971V251.499H143.791L146.634 256.243L149.467 251.499H151.236V260.143H149.354Z" fill="#FEFEFE"/>
<path d="M158.262 251.499H159.898L163.917 260.143H161.872L161.064 258.32H156.973L156.186 260.143H154.141L158.262 251.499ZM157.669 256.824H160.389L159.07 253.769L157.669 256.824Z" fill="#FEFEFE"/>
<path d="M174.88 251.499V260.143H173.223L168.816 254.798V260.143H166.883V251.499H168.519L172.947 256.864V251.499H174.88Z" fill="#FEFEFE"/>
<path d="M181.865 251.499H183.501L187.53 260.143H185.485L184.687 258.32H180.668L179.891 260.143H177.846L181.865 251.499ZM181.282 256.824H183.992L182.683 253.769H182.601L181.282 256.824Z" fill="#FEFEFE"/>
<path d="M197.244 253.963C196.453 253.278 195.449 252.886 194.401 252.853C194.013 252.862 193.631 252.946 193.275 253.102C192.92 253.258 192.599 253.482 192.331 253.762C192.063 254.041 191.852 254.37 191.712 254.73C191.571 255.091 191.504 255.475 191.512 255.861C191.521 256.248 191.606 256.629 191.763 256.982C191.919 257.336 192.144 257.656 192.425 257.923C192.706 258.19 193.036 258.399 193.398 258.539C193.76 258.679 194.146 258.746 194.534 258.738C195.31 258.747 196.073 258.547 196.743 258.157V256.701H194.125V255.144H198.523V259.012C197.328 259.866 195.902 260.338 194.432 260.367C193.828 260.411 193.22 260.337 192.645 260.148C192.069 259.959 191.537 259.66 191.077 259.266C190.618 258.872 190.242 258.392 189.969 257.853C189.696 257.315 189.532 256.728 189.487 256.126C189.442 255.524 189.517 254.92 189.707 254.347C189.896 253.774 190.197 253.244 190.593 252.787C190.989 252.33 191.471 251.954 192.012 251.683C192.553 251.411 193.142 251.248 193.747 251.204H194.36C195.859 251.254 197.298 251.798 198.451 252.751L197.244 253.963Z" fill="#FEFEFE"/>
<path d="M207.545 256.457H204.333V258.493H209.978V260.122H202.441V251.479H209.672V253.128H204.333V254.808H207.545V256.457Z" fill="#FEFEFE"/>
<path d="M220.706 260.143V255.134H220.634L218.2 259.206H217.669L215.235 255.134H215.173V260.143H213.322V251.499H215.143L217.996 256.243L220.829 251.499H222.598V260.143H220.706Z" fill="#FEFEFE"/>
<path d="M231.894 256.457H228.693V258.493H234.328V260.122H226.791V251.479H234.021V253.128H228.693V254.808H231.894V256.457Z" fill="#FEFEFE"/>
<path d="M245.668 251.499V260.143H244.022L239.604 254.798V260.143H237.691V251.499H239.328L243.756 256.864V251.499H245.668Z" fill="#FEFEFE"/>
<path d="M248.819 251.499H257V253.148H253.861V260.143H251.958V253.148H248.809L248.819 251.499Z" fill="#FEFEFE"/>
<path d="M69.5137 241.338V218.736H73.3998V227.288H85.7435V218.736H89.6399V241.338H85.7435V230.74H73.3998V241.338H69.5137Z" fill="#FEFEFE"/>
<path d="M110.124 231.259H101.39V237.877H116.73V241.338H97.5039V218.736H115.912V222.198H101.39V227.808H110.124V231.259Z" fill="#FEFEFE"/>
<path d="M122.324 241.338V218.736H134.842C137.91 218.736 139.955 219.561 141.418 221.119C142.582 222.345 143.227 223.972 143.217 225.659C143.217 228.714 141.172 231.025 138.217 232.124L143.637 241.338H139.157L134.289 232.644H126.221V241.338H122.324ZM126.221 222.198V229.192H135.496C136.467 229.214 137.408 228.857 138.117 228.197C138.827 227.536 139.248 226.625 139.29 225.659C139.285 224.816 138.947 224.008 138.349 223.409C137.882 222.963 137.322 222.623 136.709 222.414C136.097 222.205 135.445 222.131 134.801 222.198H126.221Z" fill="#FEFEFE"/>
<path d="M149.549 241.338V218.736H153.445V241.338H149.549Z" fill="#FEFEFE"/>
<path d="M158.414 218.736H180.146V222.198H171.289V241.338H167.352V222.198H158.414V218.736Z" fill="#FEFEFE"/>
<path d="M190.65 218.736H194.198L204.732 241.338H200.457L197.706 235.23H186.896L184.186 241.338H180.096L190.65 218.736ZM188.287 232.124H196.315L192.419 223.369H192.214L188.287 232.124Z" fill="#FEFEFE"/>
<path d="M227.403 224.55C225.257 222.615 222.474 221.528 219.579 221.495C218.454 221.52 217.345 221.765 216.314 222.217C215.284 222.669 214.353 223.318 213.575 224.127C212.797 224.937 212.186 225.892 211.779 226.936C211.371 227.981 211.174 229.095 211.199 230.216C211.224 231.336 211.47 232.44 211.923 233.466C212.377 234.492 213.029 235.418 213.843 236.193C214.656 236.968 215.615 237.576 216.664 237.982C217.713 238.387 218.832 238.584 219.958 238.559C222.314 238.599 224.633 237.963 226.636 236.726V232.186H219.477V228.724H230.154V238.6C227.083 240.749 223.435 241.93 219.682 241.99C218.062 242.076 216.441 241.836 214.916 241.283C213.392 240.731 211.995 239.878 210.809 238.775C209.624 237.673 208.674 236.343 208.016 234.867C207.359 233.39 207.008 231.797 206.984 230.182C206.96 228.567 207.263 226.964 207.876 225.468C208.489 223.973 209.399 222.616 210.551 221.479C211.703 220.342 213.074 219.448 214.582 218.851C216.089 218.253 217.702 217.965 219.324 218.003H219.508C223.403 218.086 227.145 219.528 230.082 222.076L227.403 224.55Z" fill="#FEFEFE"/>
<path d="M249.79 231.259H241.066V237.877H256.406V241.338H237.17V218.736H255.578V222.198H241.066V227.808H249.79V231.259Z" fill="#FEFEFE"/>
<path d="M10.7962 288.379H9.38707C9.30374 287.974 9.15791 287.618 8.94957 287.311C8.74503 287.004 8.49503 286.747 8.19957 286.538C7.90791 286.326 7.58404 286.167 7.22798 286.061C6.87192 285.955 6.50071 285.902 6.11435 285.902C5.4098 285.902 4.77154 286.08 4.19957 286.436C3.63139 286.792 3.17874 287.317 2.84162 288.01C2.50829 288.703 2.34162 289.553 2.34162 290.561C2.34162 291.569 2.50829 292.419 2.84162 293.112C3.17874 293.805 3.63139 294.33 4.19957 294.686C4.77154 295.042 5.4098 295.22 6.11435 295.22C6.50071 295.22 6.87192 295.167 7.22798 295.061C7.58404 294.955 7.90791 294.798 8.19957 294.589C8.49503 294.377 8.74503 294.118 8.94957 293.811C9.15791 293.5 9.30374 293.144 9.38707 292.743H10.7962C10.6901 293.337 10.4969 293.87 10.2166 294.339C9.93632 294.809 9.58783 295.209 9.17117 295.538C8.7545 295.864 8.2867 296.112 7.76776 296.283C7.2526 296.453 6.70147 296.538 6.11435 296.538C5.12192 296.538 4.23935 296.296 3.46662 295.811C2.69389 295.326 2.08594 294.637 1.64276 293.743C1.19957 292.849 0.977983 291.788 0.977983 290.561C0.977983 289.334 1.19957 288.273 1.64276 287.379C2.08594 286.485 2.69389 285.796 3.46662 285.311C4.23935 284.826 5.12192 284.584 6.11435 284.584C6.70147 284.584 7.2526 284.669 7.76776 284.839C8.2867 285.01 8.7545 285.26 9.17117 285.589C9.58783 285.915 9.93632 286.313 10.2166 286.783C10.4969 287.248 10.6901 287.781 10.7962 288.379ZM16.4368 296.561C15.6489 296.561 14.9576 296.373 14.3629 295.998C13.772 295.623 13.3099 295.099 12.9766 294.425C12.647 293.75 12.4822 292.962 12.4822 292.061C12.4822 291.152 12.647 290.358 12.9766 289.68C13.3099 289.002 13.772 288.476 14.3629 288.101C14.9576 287.726 15.6489 287.538 16.4368 287.538C17.2247 287.538 17.9141 287.726 18.505 288.101C19.0997 288.476 19.5618 289.002 19.8913 289.68C20.2247 290.358 20.3913 291.152 20.3913 292.061C20.3913 292.962 20.2247 293.75 19.8913 294.425C19.5618 295.099 19.0997 295.623 18.505 295.998C17.9141 296.373 17.2247 296.561 16.4368 296.561ZM16.4368 295.356C17.0353 295.356 17.5277 295.203 17.9141 294.896C18.3004 294.589 18.5864 294.186 18.772 293.686C18.9576 293.186 19.0504 292.644 19.0504 292.061C19.0504 291.478 18.9576 290.934 18.772 290.43C18.5864 289.926 18.3004 289.519 17.9141 289.209C17.5277 288.898 17.0353 288.743 16.4368 288.743C15.8383 288.743 15.3459 288.898 14.9595 289.209C14.5732 289.519 14.2872 289.926 14.1016 290.43C13.916 290.934 13.8232 291.478 13.8232 292.061C13.8232 292.644 13.916 293.186 14.1016 293.686C14.2872 294.186 14.5732 294.589 14.9595 294.896C15.3459 295.203 15.8383 295.356 16.4368 295.356ZM22.4382 299.652V287.652H23.7337V289.038H23.8928C23.9912 288.887 24.1276 288.694 24.3018 288.459C24.4799 288.22 24.7337 288.008 25.0632 287.822C25.3965 287.633 25.8473 287.538 26.4155 287.538C27.1503 287.538 27.7981 287.722 28.3587 288.089C28.9193 288.457 29.3568 288.978 29.6712 289.652C29.9856 290.326 30.1428 291.122 30.1428 292.038C30.1428 292.962 29.9856 293.764 29.6712 294.442C29.3568 295.116 28.9212 295.639 28.3643 296.01C27.8075 296.377 27.1655 296.561 26.4382 296.561C25.8776 296.561 25.4287 296.468 25.0916 296.283C24.7545 296.093 24.495 295.879 24.3132 295.641C24.1314 295.398 23.9912 295.197 23.8928 295.038H23.7791V299.652H22.4382ZM23.7564 292.016C23.7564 292.675 23.853 293.256 24.0462 293.76C24.2393 294.26 24.5215 294.652 24.8928 294.936C25.264 295.216 25.7185 295.356 26.2564 295.356C26.817 295.356 27.2848 295.209 27.6598 294.913C28.0386 294.614 28.3227 294.212 28.5121 293.709C28.7053 293.201 28.8018 292.637 28.8018 292.016C28.8018 291.402 28.7071 290.849 28.5178 290.356C28.3321 289.86 28.05 289.468 27.6712 289.18C27.2962 288.889 26.8246 288.743 26.2564 288.743C25.7109 288.743 25.2526 288.881 24.8814 289.158C24.5102 289.43 24.2299 289.813 24.0405 290.305C23.8511 290.794 23.7564 291.364 23.7564 292.016ZM32.7393 299.652C32.5121 299.652 32.3094 299.633 32.1314 299.595C31.9534 299.561 31.8303 299.527 31.7621 299.493L32.103 298.311C32.4287 298.394 32.7166 298.425 32.9666 298.402C33.2166 298.379 33.4382 298.267 33.6314 298.067C33.8284 297.87 34.0083 297.55 34.1712 297.106L34.4212 296.425L31.1939 287.652H32.6484L35.0575 294.606H35.1484L37.5575 287.652H39.0121L35.3075 297.652C35.1409 298.103 34.9344 298.476 34.6882 298.771C34.442 299.07 34.156 299.292 33.8303 299.436C33.5083 299.58 33.1446 299.652 32.7393 299.652ZM40.782 296.379V287.652H42.0774V288.97H42.1683C42.3274 288.538 42.6153 288.188 43.032 287.919C43.4486 287.65 43.9183 287.516 44.4411 287.516C44.5395 287.516 44.6626 287.517 44.8104 287.521C44.9581 287.525 45.0698 287.531 45.1456 287.538V288.902C45.1001 288.891 44.996 288.873 44.8331 288.851C44.674 288.824 44.5054 288.811 44.3274 288.811C43.9032 288.811 43.5244 288.9 43.1911 289.078C42.8615 289.252 42.6001 289.495 42.407 289.805C42.2176 290.112 42.1229 290.462 42.1229 290.856V296.379H40.782ZM46.7351 296.379V287.652H48.076V296.379H46.7351ZM47.4169 286.197C47.1555 286.197 46.9302 286.108 46.7408 285.93C46.5552 285.752 46.4624 285.538 46.4624 285.288C46.4624 285.038 46.5552 284.824 46.7408 284.646C46.9302 284.468 47.1555 284.379 47.4169 284.379C47.6783 284.379 47.9018 284.468 48.0874 284.646C48.2768 284.824 48.3714 285.038 48.3714 285.288C48.3714 285.538 48.2768 285.752 48.0874 285.93C47.9018 286.108 47.6783 286.197 47.4169 286.197ZM54.0547 299.834C53.407 299.834 52.8501 299.75 52.3842 299.584C51.9183 299.421 51.5301 299.205 51.2195 298.936C50.9126 298.671 50.6683 298.387 50.4865 298.084L51.5547 297.334C51.6759 297.493 51.8293 297.675 52.0149 297.879C52.2005 298.087 52.4543 298.267 52.7763 298.419C53.102 298.574 53.5282 298.652 54.0547 298.652C54.7592 298.652 55.3407 298.481 55.799 298.141C56.2573 297.8 56.4865 297.266 56.4865 296.538V294.766H56.3729C56.2744 294.925 56.1342 295.122 55.9524 295.356C55.7744 295.587 55.5168 295.794 55.1797 295.976C54.8464 296.154 54.3956 296.243 53.8274 296.243C53.1229 296.243 52.4903 296.076 51.9297 295.743C51.3729 295.409 50.9316 294.925 50.6058 294.288C50.2839 293.652 50.1229 292.879 50.1229 291.97C50.1229 291.076 50.2801 290.298 50.5945 289.635C50.9089 288.968 51.3464 288.453 51.907 288.089C52.4676 287.722 53.1153 287.538 53.8501 287.538C54.4183 287.538 54.8691 287.633 55.2024 287.822C55.5395 288.008 55.7971 288.22 55.9751 288.459C56.157 288.694 56.2971 288.887 56.3956 289.038H56.532V287.652H57.8274V296.629C57.8274 297.379 57.657 297.989 57.3161 298.459C56.9789 298.932 56.5244 299.279 55.9524 299.498C55.3842 299.722 54.7517 299.834 54.0547 299.834ZM54.0092 295.038C54.5471 295.038 55.0017 294.915 55.3729 294.669C55.7441 294.423 56.0263 294.069 56.2195 293.606C56.4126 293.144 56.5092 292.591 56.5092 291.947C56.5092 291.319 56.4145 290.764 56.2251 290.283C56.0357 289.801 55.7554 289.425 55.3842 289.152C55.013 288.879 54.5547 288.743 54.0092 288.743C53.4411 288.743 52.9676 288.887 52.5888 289.175C52.2138 289.462 51.9316 289.849 51.7422 290.334C51.5566 290.819 51.4638 291.356 51.4638 291.947C51.4638 292.553 51.5585 293.089 51.7479 293.555C51.9411 294.017 52.2251 294.381 52.6001 294.646C52.9789 294.908 53.4486 295.038 54.0092 295.038ZM61.6229 291.129V296.379H60.282V284.743H61.6229V289.016H61.7365C61.9411 288.565 62.2479 288.207 62.657 287.942C63.0698 287.673 63.6191 287.538 64.3047 287.538C64.8994 287.538 65.4202 287.658 65.8672 287.896C66.3142 288.131 66.6607 288.493 66.907 288.981C67.157 289.466 67.282 290.084 67.282 290.834V296.379H65.9411V290.925C65.9411 290.231 65.7611 289.695 65.4013 289.317C65.0452 288.934 64.5509 288.743 63.9183 288.743C63.4789 288.743 63.085 288.836 62.7365 289.021C62.3918 289.207 62.1191 289.478 61.9183 289.834C61.7214 290.19 61.6229 290.622 61.6229 291.129ZM73.5305 287.652V288.788H69.0078V287.652H73.5305ZM70.326 285.561H71.6669V293.879C71.6669 294.258 71.7218 294.542 71.8317 294.731C71.9453 294.917 72.0893 295.042 72.2635 295.106C72.4415 295.167 72.629 295.197 72.826 295.197C72.9737 295.197 73.0949 295.19 73.1896 295.175C73.2843 295.156 73.3601 295.141 73.4169 295.129L73.6896 296.334C73.5987 296.368 73.4718 296.402 73.3089 296.436C73.1461 296.474 72.9396 296.493 72.6896 296.493C72.3108 296.493 71.9396 296.411 71.576 296.248C71.2161 296.086 70.9169 295.837 70.6783 295.504C70.4434 295.171 70.326 294.75 70.326 294.243V285.561ZM86.7521 297.743C85.593 297.743 84.5684 297.584 83.6783 297.266C82.7881 296.951 82.04 296.487 81.4339 295.873C80.8279 295.26 80.3696 294.508 80.0589 293.618C79.7483 292.728 79.593 291.709 79.593 290.561C79.593 289.451 79.7502 288.459 80.0646 287.584C80.3828 286.709 80.843 285.966 81.4453 285.356C82.0514 284.743 82.7862 284.275 83.6499 283.953C84.5173 283.631 85.4983 283.47 86.593 283.47C87.6574 283.47 88.5893 283.644 89.3885 283.993C90.1915 284.337 90.862 284.805 91.3999 285.396C91.9415 285.983 92.3468 286.644 92.6158 287.379C92.8885 288.114 93.0249 288.872 93.0249 289.652C93.0249 290.201 92.9983 290.758 92.9453 291.322C92.8923 291.887 92.7805 292.406 92.6101 292.879C92.4396 293.349 92.1764 293.728 91.8203 294.016C91.468 294.303 90.9908 294.447 90.3885 294.447C90.1233 294.447 89.8317 294.406 89.5135 294.322C89.1953 294.239 88.9131 294.101 88.6669 293.908C88.4207 293.714 88.2749 293.455 88.2294 293.129H88.1612C88.0703 293.349 87.9302 293.557 87.7408 293.754C87.5552 293.951 87.3108 294.108 87.0078 294.226C86.7086 294.343 86.343 294.394 85.9112 294.379C85.4188 294.36 84.9851 294.25 84.6101 294.05C84.2351 293.845 83.9207 293.569 83.6669 293.22C83.4169 292.868 83.2275 292.461 83.0987 291.998C82.9737 291.533 82.9112 291.031 82.9112 290.493C82.9112 289.981 82.987 289.514 83.1385 289.089C83.29 288.665 83.5002 288.294 83.7692 287.976C84.0419 287.658 84.3601 287.404 84.7237 287.214C85.0911 287.021 85.487 286.902 85.9112 286.856C86.29 286.819 86.6347 286.836 86.9453 286.908C87.2559 286.976 87.5116 287.08 87.7124 287.22C87.9131 287.356 88.04 287.508 88.093 287.675H88.1612V287.038H89.3658V292.175C89.3658 292.493 89.4548 292.773 89.6328 293.016C89.8108 293.258 90.0703 293.379 90.4112 293.379C90.7976 293.379 91.093 293.247 91.2976 292.981C91.5059 292.716 91.648 292.307 91.7237 291.754C91.8033 291.201 91.843 290.493 91.843 289.629C91.843 289.122 91.773 288.622 91.6328 288.129C91.4964 287.633 91.2881 287.169 91.0078 286.737C90.7313 286.305 90.3809 285.925 89.9567 285.595C89.5324 285.266 89.0343 285.008 88.4624 284.822C87.8942 284.633 87.2483 284.538 86.5249 284.538C85.6347 284.538 84.8374 284.676 84.1328 284.953C83.4321 285.226 82.8355 285.625 82.343 286.152C81.8544 286.675 81.4813 287.311 81.2237 288.061C80.9699 288.807 80.843 289.656 80.843 290.606C80.843 291.572 80.9699 292.43 81.2237 293.18C81.4813 293.93 81.8601 294.563 82.3601 295.078C82.8639 295.593 83.487 295.985 84.2294 296.254C84.9718 296.519 85.8279 296.652 86.7976 296.652C87.2143 296.652 87.6252 296.612 88.0305 296.533C88.4358 296.453 88.7938 296.366 89.1044 296.271C89.415 296.176 89.6385 296.106 89.7749 296.061L90.093 297.106C89.8582 297.205 89.5514 297.303 89.1726 297.402C88.7976 297.5 88.3961 297.582 87.968 297.646C87.5438 297.711 87.1385 297.743 86.7521 297.743ZM86.093 293.22C86.6006 293.22 87.0116 293.118 87.326 292.913C87.6404 292.709 87.8696 292.4 88.0135 291.987C88.1574 291.574 88.2294 291.053 88.2294 290.425C88.2294 289.788 88.1499 289.292 87.9908 288.936C87.8317 288.58 87.5968 288.33 87.2862 288.186C86.9756 288.042 86.593 287.97 86.1385 287.97C85.7067 287.97 85.3374 288.084 85.0305 288.311C84.7275 288.534 84.4946 288.834 84.3317 289.209C84.1726 289.58 84.093 289.985 84.093 290.425C84.093 290.909 84.1574 291.366 84.2862 291.794C84.415 292.218 84.6252 292.563 84.9169 292.828C85.2086 293.089 85.6006 293.22 86.093 293.22ZM95.0092 296.379V295.356L98.8501 291.152C99.3009 290.659 99.6721 290.231 99.9638 289.868C100.255 289.5 100.471 289.156 100.612 288.834C100.755 288.508 100.827 288.167 100.827 287.811C100.827 287.402 100.729 287.048 100.532 286.748C100.339 286.449 100.074 286.218 99.7365 286.055C99.3994 285.892 99.0206 285.811 98.6001 285.811C98.1532 285.811 97.763 285.904 97.4297 286.089C97.1001 286.271 96.8445 286.527 96.6626 286.856C96.4846 287.186 96.3956 287.572 96.3956 288.016H95.0547C95.0547 287.334 95.2119 286.735 95.5263 286.22C95.8407 285.705 96.2687 285.303 96.8104 285.016C97.3558 284.728 97.9676 284.584 98.6456 284.584C99.3274 284.584 99.9316 284.728 100.458 285.016C100.985 285.303 101.397 285.692 101.697 286.18C101.996 286.669 102.146 287.212 102.146 287.811C102.146 288.239 102.068 288.658 101.913 289.067C101.761 289.472 101.496 289.925 101.117 290.425C100.742 290.921 100.221 291.527 99.5547 292.243L96.9411 295.038V295.129H102.35V296.379H95.0092ZM108.492 296.538C107.636 296.538 106.907 296.305 106.305 295.839C105.702 295.37 105.242 294.69 104.924 293.8C104.606 292.906 104.447 291.826 104.447 290.561C104.447 289.303 104.606 288.23 104.924 287.339C105.246 286.445 105.708 285.764 106.31 285.294C106.916 284.82 107.644 284.584 108.492 284.584C109.341 284.584 110.066 284.82 110.668 285.294C111.274 285.764 111.737 286.445 112.055 287.339C112.377 288.23 112.538 289.303 112.538 290.561C112.538 291.826 112.379 292.906 112.06 293.8C111.742 294.69 111.282 295.37 110.68 295.839C110.077 296.305 109.348 296.538 108.492 296.538ZM108.492 295.288C109.341 295.288 110 294.879 110.469 294.061C110.939 293.243 111.174 292.076 111.174 290.561C111.174 289.553 111.066 288.695 110.85 287.987C110.638 287.279 110.331 286.739 109.93 286.368C109.532 285.997 109.053 285.811 108.492 285.811C107.651 285.811 106.994 286.226 106.521 287.055C106.047 287.881 105.81 289.05 105.81 290.561C105.81 291.569 105.916 292.425 106.129 293.129C106.341 293.834 106.646 294.37 107.043 294.737C107.445 295.105 107.928 295.288 108.492 295.288ZM114.697 296.379V295.356L118.538 291.152C118.988 290.659 119.36 290.231 119.651 289.868C119.943 289.5 120.159 289.156 120.299 288.834C120.443 288.508 120.515 288.167 120.515 287.811C120.515 287.402 120.416 287.048 120.219 286.748C120.026 286.449 119.761 286.218 119.424 286.055C119.087 285.892 118.708 285.811 118.288 285.811C117.841 285.811 117.451 285.904 117.117 286.089C116.788 286.271 116.532 286.527 116.35 286.856C116.172 287.186 116.083 287.572 116.083 288.016H114.742C114.742 287.334 114.899 286.735 115.214 286.22C115.528 285.705 115.956 285.303 116.498 285.016C117.043 284.728 117.655 284.584 118.333 284.584C119.015 284.584 119.619 284.728 120.146 285.016C120.672 285.303 121.085 285.692 121.384 286.18C121.683 286.669 121.833 287.212 121.833 287.811C121.833 288.239 121.755 288.658 121.6 289.067C121.449 289.472 121.183 289.925 120.805 290.425C120.43 290.921 119.909 291.527 119.242 292.243L116.629 295.038V295.129H122.038V296.379H114.697ZM123.862 293.993V292.834L128.975 284.743H129.816V286.538H129.248L125.384 292.652V292.743H132.271V293.993H123.862ZM129.339 296.379V293.641V293.101V284.743H130.68V296.379H129.339ZM139.104 296.379V284.743H140.513V289.925H146.718V284.743H148.127V296.379H146.718V291.175H140.513V296.379H139.104ZM153.062 296.379L149.88 284.743H151.312L153.744 294.22H153.857L156.335 284.743H157.925L160.403 294.22H160.516L162.948 284.743H164.38L161.198 296.379H159.744L157.175 287.106H157.085L154.516 296.379H153.062ZM166.136 284.743H167.817L171.772 294.402H171.908L175.863 284.743H177.545V296.379H176.227V287.538H176.113L172.477 296.379H171.204L167.567 287.538H167.454V296.379H166.136V284.743ZM181.165 296.47C180.885 296.47 180.645 296.37 180.444 296.169C180.243 295.968 180.143 295.728 180.143 295.447C180.143 295.167 180.243 294.926 180.444 294.726C180.645 294.525 180.885 294.425 181.165 294.425C181.446 294.425 181.686 294.525 181.887 294.726C182.088 294.926 182.188 295.167 182.188 295.447C182.188 295.633 182.141 295.803 182.046 295.959C181.955 296.114 181.832 296.239 181.677 296.334C181.525 296.425 181.355 296.47 181.165 296.47ZM189.754 296.379H188.276L192.549 284.743H194.004L198.276 296.379H196.799L193.322 286.584H193.231L189.754 296.379ZM190.299 291.834H196.254V293.084H190.299V291.834ZM201.248 284.743V296.379H199.907V284.743H201.248ZM205.045 284.743V296.379H203.704V284.743H205.045ZM212.001 296.379V287.652H213.296V288.97H213.387C213.546 288.538 213.834 288.188 214.251 287.919C214.667 287.65 215.137 287.516 215.66 287.516C215.758 287.516 215.881 287.517 216.029 287.521C216.177 287.525 216.289 287.531 216.364 287.538V288.902C216.319 288.891 216.215 288.873 216.052 288.851C215.893 288.824 215.724 288.811 215.546 288.811C215.122 288.811 214.743 288.9 214.41 289.078C214.08 289.252 213.819 289.495 213.626 289.805C213.436 290.112 213.342 290.462 213.342 290.856V296.379H212.001ZM217.954 296.379V287.652H219.295V296.379H217.954ZM218.636 286.197C218.374 286.197 218.149 286.108 217.96 285.93C217.774 285.752 217.681 285.538 217.681 285.288C217.681 285.038 217.774 284.824 217.96 284.646C218.149 284.468 218.374 284.379 218.636 284.379C218.897 284.379 219.121 284.468 219.306 284.646C219.496 284.824 219.59 285.038 219.59 285.288C219.59 285.538 219.496 285.752 219.306 285.93C219.121 286.108 218.897 286.197 218.636 286.197ZM225.273 299.834C224.626 299.834 224.069 299.75 223.603 299.584C223.137 299.421 222.749 299.205 222.438 298.936C222.131 298.671 221.887 298.387 221.705 298.084L222.773 297.334C222.895 297.493 223.048 297.675 223.234 297.879C223.419 298.087 223.673 298.267 223.995 298.419C224.321 298.574 224.747 298.652 225.273 298.652C225.978 298.652 226.559 298.481 227.018 298.141C227.476 297.8 227.705 297.266 227.705 296.538V294.766H227.592C227.493 294.925 227.353 295.122 227.171 295.356C226.993 295.587 226.736 295.794 226.398 295.976C226.065 296.154 225.614 296.243 225.046 296.243C224.342 296.243 223.709 296.076 223.148 295.743C222.592 295.409 222.15 294.925 221.825 294.288C221.503 293.652 221.342 292.879 221.342 291.97C221.342 291.076 221.499 290.298 221.813 289.635C222.128 288.968 222.565 288.453 223.126 288.089C223.686 287.722 224.334 287.538 225.069 287.538C225.637 287.538 226.088 287.633 226.421 287.822C226.758 288.008 227.016 288.22 227.194 288.459C227.376 288.694 227.516 288.887 227.614 289.038H227.751V287.652H229.046V296.629C229.046 297.379 228.876 297.989 228.535 298.459C228.198 298.932 227.743 299.279 227.171 299.498C226.603 299.722 225.97 299.834 225.273 299.834ZM225.228 295.038C225.766 295.038 226.22 294.915 226.592 294.669C226.963 294.423 227.245 294.069 227.438 293.606C227.631 293.144 227.728 292.591 227.728 291.947C227.728 291.319 227.633 290.764 227.444 290.283C227.254 289.801 226.974 289.425 226.603 289.152C226.232 288.879 225.773 288.743 225.228 288.743C224.66 288.743 224.186 288.887 223.808 289.175C223.433 289.462 223.15 289.849 222.961 290.334C222.775 290.819 222.683 291.356 222.683 291.947C222.683 292.553 222.777 293.089 222.967 293.555C223.16 294.017 223.444 294.381 223.819 294.646C224.198 294.908 224.667 295.038 225.228 295.038ZM232.842 291.129V296.379H231.501V284.743H232.842V289.016H232.955C233.16 288.565 233.467 288.207 233.876 287.942C234.289 287.673 234.838 287.538 235.523 287.538C236.118 287.538 236.639 287.658 237.086 287.896C237.533 288.131 237.879 288.493 238.126 288.981C238.376 289.466 238.501 290.084 238.501 290.834V296.379H237.16V290.925C237.16 290.231 236.98 289.695 236.62 289.317C236.264 288.934 235.77 288.743 235.137 288.743C234.698 288.743 234.304 288.836 233.955 289.021C233.611 289.207 233.338 289.478 233.137 289.834C232.94 290.19 232.842 290.622 232.842 291.129ZM244.749 287.652V288.788H240.227V287.652H244.749ZM241.545 285.561H242.886V293.879C242.886 294.258 242.941 294.542 243.05 294.731C243.164 294.917 243.308 295.042 243.482 295.106C243.66 295.167 243.848 295.197 244.045 295.197C244.192 295.197 244.314 295.19 244.408 295.175C244.503 295.156 244.579 295.141 244.636 295.129L244.908 296.334C244.817 296.368 244.691 296.402 244.528 296.436C244.365 296.474 244.158 296.493 243.908 296.493C243.53 296.493 243.158 296.411 242.795 296.248C242.435 296.086 242.136 295.837 241.897 295.504C241.662 295.171 241.545 294.75 241.545 294.243V285.561ZM252.792 289.606L251.587 289.947C251.512 289.747 251.4 289.551 251.252 289.362C251.108 289.169 250.911 289.01 250.661 288.885C250.411 288.76 250.091 288.697 249.701 288.697C249.167 288.697 248.722 288.82 248.366 289.067C248.013 289.309 247.837 289.618 247.837 289.993C247.837 290.326 247.959 290.589 248.201 290.783C248.443 290.976 248.822 291.137 249.337 291.266L250.633 291.584C251.413 291.773 251.995 292.063 252.377 292.453C252.76 292.839 252.951 293.337 252.951 293.947C252.951 294.447 252.807 294.894 252.519 295.288C252.235 295.682 251.837 295.993 251.326 296.22C250.815 296.447 250.22 296.561 249.542 296.561C248.652 296.561 247.915 296.368 247.332 295.981C246.748 295.595 246.379 295.031 246.224 294.288L247.496 293.97C247.618 294.44 247.847 294.792 248.184 295.027C248.525 295.262 248.97 295.379 249.519 295.379C250.144 295.379 250.64 295.247 251.008 294.981C251.379 294.712 251.565 294.391 251.565 294.016C251.565 293.712 251.459 293.459 251.246 293.254C251.034 293.046 250.709 292.891 250.269 292.788L248.815 292.447C248.015 292.258 247.428 291.964 247.053 291.567C246.682 291.165 246.496 290.663 246.496 290.061C246.496 289.569 246.635 289.133 246.911 288.754C247.192 288.375 247.572 288.078 248.053 287.862C248.538 287.646 249.087 287.538 249.701 287.538C250.565 287.538 251.243 287.728 251.735 288.106C252.231 288.485 252.584 288.985 252.792 289.606ZM259.469 296.379V287.652H260.765V288.97H260.856C261.015 288.538 261.303 288.188 261.719 287.919C262.136 287.65 262.606 287.516 263.129 287.516C263.227 287.516 263.35 287.517 263.498 287.521C263.646 287.525 263.757 287.531 263.833 287.538V288.902C263.788 288.891 263.683 288.873 263.521 288.851C263.362 288.824 263.193 288.811 263.015 288.811C262.591 288.811 262.212 288.9 261.879 289.078C261.549 289.252 261.288 289.495 261.094 289.805C260.905 290.112 260.81 290.462 260.81 290.856V296.379H259.469ZM268.816 296.561C267.975 296.561 267.25 296.375 266.64 296.004C266.034 295.629 265.566 295.106 265.237 294.436C264.911 293.762 264.748 292.978 264.748 292.084C264.748 291.19 264.911 290.402 265.237 289.72C265.566 289.034 266.024 288.5 266.612 288.118C267.202 287.731 267.892 287.538 268.68 287.538C269.134 287.538 269.583 287.614 270.026 287.766C270.469 287.917 270.873 288.163 271.237 288.504C271.6 288.841 271.89 289.288 272.106 289.845C272.322 290.402 272.43 291.087 272.43 291.902V292.47H265.702V291.311H271.066C271.066 290.819 270.968 290.379 270.771 289.993C270.577 289.606 270.301 289.301 269.941 289.078C269.585 288.855 269.165 288.743 268.68 288.743C268.146 288.743 267.683 288.875 267.293 289.141C266.907 289.402 266.61 289.743 266.401 290.163C266.193 290.584 266.089 291.034 266.089 291.516V292.288C266.089 292.947 266.202 293.506 266.43 293.964C266.661 294.419 266.981 294.766 267.39 295.004C267.799 295.239 268.274 295.356 268.816 295.356C269.168 295.356 269.487 295.307 269.771 295.209C270.058 295.106 270.307 294.955 270.515 294.754C270.723 294.55 270.884 294.296 270.998 293.993L272.293 294.356C272.157 294.796 271.928 295.182 271.606 295.516C271.284 295.845 270.886 296.103 270.413 296.288C269.939 296.47 269.407 296.561 268.816 296.561ZM280.651 289.606L279.447 289.947C279.371 289.747 279.259 289.551 279.112 289.362C278.968 289.169 278.771 289.01 278.521 288.885C278.271 288.76 277.951 288.697 277.56 288.697C277.026 288.697 276.581 288.82 276.225 289.067C275.873 289.309 275.697 289.618 275.697 289.993C275.697 290.326 275.818 290.589 276.06 290.783C276.303 290.976 276.682 291.137 277.197 291.266L278.492 291.584C279.272 291.773 279.854 292.063 280.237 292.453C280.619 292.839 280.81 293.337 280.81 293.947C280.81 294.447 280.666 294.894 280.379 295.288C280.094 295.682 279.697 295.993 279.185 296.22C278.674 296.447 278.079 296.561 277.401 296.561C276.511 296.561 275.774 296.368 275.191 295.981C274.608 295.595 274.238 295.031 274.083 294.288L275.356 293.97C275.477 294.44 275.706 294.792 276.043 295.027C276.384 295.262 276.829 295.379 277.379 295.379C278.004 295.379 278.5 295.247 278.867 294.981C279.238 294.712 279.424 294.391 279.424 294.016C279.424 293.712 279.318 293.459 279.106 293.254C278.894 293.046 278.568 292.891 278.129 292.788L276.674 292.447C275.875 292.258 275.288 291.964 274.913 291.567C274.541 291.165 274.356 290.663 274.356 290.061C274.356 289.569 274.494 289.133 274.771 288.754C275.051 288.375 275.432 288.078 275.913 287.862C276.397 287.646 276.947 287.538 277.56 287.538C278.424 287.538 279.102 287.728 279.594 288.106C280.091 288.485 280.443 288.985 280.651 289.606ZM286.488 296.561C285.647 296.561 284.922 296.375 284.312 296.004C283.706 295.629 283.238 295.106 282.908 294.436C282.583 293.762 282.42 292.978 282.42 292.084C282.42 291.19 282.583 290.402 282.908 289.72C283.238 289.034 283.696 288.5 284.283 288.118C284.874 287.731 285.564 287.538 286.352 287.538C286.806 287.538 287.255 287.614 287.698 287.766C288.141 287.917 288.545 288.163 288.908 288.504C289.272 288.841 289.562 289.288 289.778 289.845C289.994 290.402 290.102 291.087 290.102 291.902V292.47H283.374V291.311H288.738C288.738 290.819 288.639 290.379 288.442 289.993C288.249 289.606 287.973 289.301 287.613 289.078C287.257 288.855 286.836 288.743 286.352 288.743C285.817 288.743 285.355 288.875 284.965 289.141C284.579 289.402 284.281 289.743 284.073 290.163C283.865 290.584 283.761 291.034 283.761 291.516V292.288C283.761 292.947 283.874 293.506 284.102 293.964C284.333 294.419 284.653 294.766 285.062 295.004C285.471 295.239 285.946 295.356 286.488 295.356C286.84 295.356 287.158 295.307 287.442 295.209C287.73 295.106 287.978 294.955 288.187 294.754C288.395 294.55 288.556 294.296 288.67 293.993L289.965 294.356C289.829 294.796 289.6 295.182 289.278 295.516C288.956 295.845 288.558 296.103 288.085 296.288C287.611 296.47 287.079 296.561 286.488 296.561ZM292.141 296.379V287.652H293.437V288.97H293.528C293.687 288.538 293.975 288.188 294.391 287.919C294.808 287.65 295.278 287.516 295.8 287.516C295.899 287.516 296.022 287.517 296.17 287.521C296.317 287.525 296.429 287.531 296.505 287.538V288.902C296.46 288.891 296.355 288.873 296.192 288.851C296.033 288.824 295.865 288.811 295.687 288.811C295.263 288.811 294.884 288.9 294.55 289.078C294.221 289.252 293.96 289.495 293.766 289.805C293.577 290.112 293.482 290.462 293.482 290.856V296.379H292.141ZM305.496 287.652L302.269 296.379H300.906L297.678 287.652H299.133L301.542 294.606H301.633L304.042 287.652H305.496ZM310.613 296.561C309.772 296.561 309.047 296.375 308.437 296.004C307.831 295.629 307.363 295.106 307.033 294.436C306.708 293.762 306.545 292.978 306.545 292.084C306.545 291.19 306.708 290.402 307.033 289.72C307.363 289.034 307.821 288.5 308.408 288.118C308.999 287.731 309.689 287.538 310.477 287.538C310.931 287.538 311.38 287.614 311.823 287.766C312.266 287.917 312.67 288.163 313.033 288.504C313.397 288.841 313.687 289.288 313.903 289.845C314.119 290.402 314.227 291.087 314.227 291.902V292.47H307.499V291.311H312.863C312.863 290.819 312.764 290.379 312.567 289.993C312.374 289.606 312.098 289.301 311.738 289.078C311.382 288.855 310.961 288.743 310.477 288.743C309.942 288.743 309.48 288.875 309.09 289.141C308.704 289.402 308.406 289.743 308.198 290.163C307.99 290.584 307.886 291.034 307.886 291.516V292.288C307.886 292.947 307.999 293.506 308.227 293.964C308.458 294.419 308.778 294.766 309.187 295.004C309.596 295.239 310.071 295.356 310.613 295.356C310.965 295.356 311.283 295.307 311.567 295.209C311.855 295.106 312.103 294.955 312.312 294.754C312.52 294.55 312.681 294.296 312.795 293.993L314.09 294.356C313.954 294.796 313.725 295.182 313.403 295.516C313.081 295.845 312.683 296.103 312.21 296.288C311.736 296.47 311.204 296.561 310.613 296.561ZM319.562 296.561C318.835 296.561 318.192 296.377 317.636 296.01C317.079 295.639 316.643 295.116 316.329 294.442C316.014 293.764 315.857 292.962 315.857 292.038C315.857 291.122 316.014 290.326 316.329 289.652C316.643 288.978 317.081 288.457 317.641 288.089C318.202 287.722 318.85 287.538 319.585 287.538C320.153 287.538 320.602 287.633 320.931 287.822C321.264 288.008 321.518 288.22 321.692 288.459C321.871 288.694 322.009 288.887 322.107 289.038H322.221V284.743H323.562V296.379H322.266V295.038H322.107C322.009 295.197 321.869 295.398 321.687 295.641C321.505 295.879 321.246 296.093 320.908 296.283C320.571 296.468 320.122 296.561 319.562 296.561ZM319.744 295.356C320.281 295.356 320.736 295.216 321.107 294.936C321.478 294.652 321.761 294.26 321.954 293.76C322.147 293.256 322.244 292.675 322.244 292.016C322.244 291.364 322.149 290.794 321.96 290.305C321.77 289.813 321.49 289.43 321.119 289.158C320.747 288.881 320.289 288.743 319.744 288.743C319.175 288.743 318.702 288.889 318.323 289.18C317.948 289.468 317.666 289.86 317.477 290.356C317.291 290.849 317.198 291.402 317.198 292.016C317.198 292.637 317.293 293.201 317.482 293.709C317.675 294.212 317.96 294.614 318.335 294.913C318.713 295.209 319.183 295.356 319.744 295.356Z" fill="white"/>
</svg>
