<svg width="189" height="261" viewBox="0 0 189 261" fill="none" xmlns="http://www.w3.org/2000/svg">
<path d="M95.0326 0C33 31.1769 33 36.0762 33 74.2308V118.769C33 156.924 33 161.823 95.181 193C157.362 161.823 157.362 156.924 157.362 118.769V74.2308C157.214 36.0762 157.214 31.1769 95.0326 0Z" fill="white"/>
<path d="M95.3156 184.482L95.0188 184.333C69.1966 171.268 53.9111 162.509 47.0845 153.898C41.1484 146.475 41 138.31 41 119.01V74.4715C41 55.1715 41.2968 47.0062 47.0845 39.5831C53.9111 30.9723 69.1966 22.2131 95.0188 9.14846L95.3156 9L95.7608 9.14846C121.583 22.2131 136.868 30.9723 143.695 39.5831C149.483 47.0062 149.78 55.1715 149.78 74.4715V119.01C149.78 138.31 149.483 146.327 143.695 153.898C136.868 162.509 121.583 171.268 95.7608 184.333L95.3156 184.482ZM95.3156 10.6331C69.9386 23.5492 54.8015 32.16 48.2718 40.4738C42.6324 47.6 42.484 55.4685 42.484 74.4715V119.01C42.484 137.865 42.7808 145.882 48.2718 153.008C54.8015 161.47 69.9386 169.932 95.3156 182.848C120.693 169.932 135.83 161.47 142.359 153.008C147.999 145.882 148.147 138.013 148.147 119.01V74.4715C148.147 55.6169 147.999 47.6 142.359 40.4738C135.83 32.16 120.841 23.5492 95.3156 10.6331Z" fill="#124068"/>
<path d="M103.626 102.828L73.7974 55.3203C64.0028 66.0095 63.4092 77.4411 68.7517 85.6065C75.875 96.5926 84.6308 110.103 88.4893 115.447C90.1218 117.674 93.8318 122.573 88.7861 123.019C87.1537 123.167 84.1856 123.167 81.0692 123.167C74.8362 123.167 67.5645 123.019 67.5645 123.019L81.366 132.075C85.5213 130.145 90.1218 128.957 94.7223 128.957C102.142 128.957 108.524 132.372 113.718 138.607L122.028 132.966C109.414 132.372 108.227 125.691 109.117 120.346C110.008 115.002 113.421 111.439 116.983 111.142H117.428C119.506 111.142 120.248 112.775 120.248 115.15L122.474 114.705C123.364 112.775 123.958 110.696 124.255 108.47C124.848 104.61 122.474 100.304 115.35 100.304C114.311 100.304 113.273 100.453 112.085 100.601C109.563 101.195 106.446 101.937 103.626 102.828Z" fill="#124068"/>
<path d="M104.516 100.453C107.039 99.7103 109.71 98.968 112.233 98.6711C112.678 98.6711 113.123 98.5226 113.568 98.5226C116.388 94.2172 119.356 89.7634 122.027 85.6065C127.37 77.4411 126.776 66.0095 117.13 55.3203L96.502 87.8334L104.516 100.453Z" fill="#124068"/>
<path d="M79.7226 148.587H81.701V159.24H79.7226V148.587ZM74.2136 159.24H72.2353V148.587H74.2136V159.24ZM79.8748 154.675H74.0462V152.986H79.8748V154.675Z" fill="#124068"/>
<path d="M90.2264 159.24L86.6958 148.587H88.7503L91.9004 158.221H90.8808L94.1527 148.587H95.9789L99.1595 158.221H98.1703L101.397 148.587H103.284L99.753 159.24H97.6529L94.7462 150.551H95.2941L92.3417 159.24H90.2264Z" fill="#124068"/>
<path d="M108.345 159.24V148.587H109.973L114.63 156.364H113.778L118.358 148.587H119.987L120.002 159.24H118.13L118.115 151.525H118.511L114.615 158.023H113.732L109.775 151.525H110.232V159.24H108.345Z" fill="#124068"/>
<path d="M2.04534 251.499L3.70207 257.18H3.78389L5.56334 251.499H6.99508L8.7643 257.18H8.84611L10.5131 251.499H12.5584L9.78697 260.143H7.92571L6.28943 255.052H6.20762L4.5918 260.143H2.78167L0 251.499H2.04534Z" fill="#FEFEFE"/>
<path d="M20.8106 256.457H17.5994V258.493H23.2344V260.122H15.6973V251.479H22.9378V253.128H17.5994V254.808H20.8106V256.457Z" fill="#FEFEFE"/>
<path d="M29.4119 251.499H31.0482L35.0673 260.143H33.022L32.2243 258.32H28.1336L27.3461 260.143H25.3008L29.4119 251.499ZM28.8188 256.824H31.5391L30.2198 253.769H30.138L28.8188 256.824Z" fill="#FEFEFE"/>
<path d="M39.9354 251.499V258.514H45.0487V260.143H38.0332V251.499H39.9354Z" fill="#FEFEFE"/>
<path d="M46.1016 251.499H54.2829V253.148H51.1331V260.143H49.2514V253.148H46.1016V251.499Z" fill="#FEFEFE"/>
<path d="M57.4434 260.143V251.499H59.3149V254.706H63.4055V251.499H65.3179V260.143H63.4567V256.304H59.3149V260.143H57.4434Z" fill="#FEFEFE"/>
<path d="M81.3544 260.143V255.134H81.2828L78.8488 259.206H78.3171L75.8831 255.134H75.8217V260.143H73.9707V251.499H75.7911L78.6341 256.243L81.4669 251.499H83.2361V260.143H81.3544Z" fill="#FEFEFE"/>
<path d="M90.262 251.499H91.8983L95.9174 260.143H93.872L93.0641 258.32H88.9734L88.186 260.143H86.1406L90.262 251.499ZM89.6688 256.824H92.3891L91.0699 253.769L89.6688 256.824Z" fill="#FEFEFE"/>
<path d="M106.88 251.499V260.143H105.223L100.816 254.798V260.143H98.8828V251.499H100.519L104.947 256.864V251.499H106.88Z" fill="#FEFEFE"/>
<path d="M113.865 251.499H115.501L119.53 260.143H117.485L116.687 258.32H112.668L111.891 260.143H109.846L113.865 251.499ZM113.282 256.824H115.992L114.683 253.769H114.601L113.282 256.824Z" fill="#FEFEFE"/>
<path d="M129.244 253.962C128.453 253.277 127.449 252.885 126.401 252.852C126.013 252.861 125.631 252.946 125.275 253.102C124.92 253.258 124.599 253.482 124.331 253.761C124.063 254.04 123.852 254.37 123.712 254.73C123.571 255.09 123.504 255.475 123.512 255.861C123.521 256.247 123.606 256.628 123.763 256.982C123.919 257.336 124.144 257.655 124.425 257.922C124.706 258.189 125.036 258.399 125.398 258.538C125.76 258.678 126.146 258.746 126.534 258.737C127.31 258.747 128.073 258.546 128.743 258.157V256.701H126.125V255.143H130.523V259.012C129.328 259.865 127.902 260.337 126.432 260.366C125.828 260.411 125.22 260.337 124.645 260.148C124.069 259.959 123.537 259.659 123.077 259.265C122.618 258.872 122.242 258.392 121.969 257.853C121.696 257.314 121.532 256.727 121.487 256.126C121.442 255.524 121.517 254.919 121.707 254.346C121.896 253.773 122.197 253.243 122.593 252.786C122.989 252.329 123.471 251.954 124.012 251.682C124.553 251.411 125.142 251.248 125.747 251.203H126.36C127.859 251.253 129.298 251.798 130.451 252.751L129.244 253.962Z" fill="#FEFEFE"/>
<path d="M139.545 256.457H136.333V258.493H141.978V260.122H134.441V251.479H141.672V253.128H136.333V254.808H139.545V256.457Z" fill="#FEFEFE"/>
<path d="M152.706 260.143V255.134H152.634L150.2 259.206H149.669L147.235 255.134H147.173V260.143H145.322V251.499H147.143L149.996 256.243L152.829 251.499H154.598V260.143H152.706Z" fill="#FEFEFE"/>
<path d="M163.894 256.457H160.693V258.493H166.328V260.122H158.791V251.479H166.021V253.128H160.693V254.808H163.894V256.457Z" fill="#FEFEFE"/>
<path d="M177.668 251.499V260.143H176.022L171.604 254.798V260.143H169.691V251.499H171.328L175.756 256.864V251.499H177.668Z" fill="#FEFEFE"/>
<path d="M180.819 251.499H189V253.148H185.861V260.143H183.958V253.148H180.809L180.819 251.499Z" fill="#FEFEFE"/>
<path d="M1.51367 241.338V218.736H5.39983V227.288H17.7435V218.736H21.6399V241.338H17.7435V230.74H5.39983V241.338H1.51367Z" fill="#FEFEFE"/>
<path d="M42.1237 231.259H33.3901V237.877H48.7301V241.338H29.5039V218.736H47.912V222.198H33.3901V227.808H42.1237V231.259Z" fill="#FEFEFE"/>
<path d="M54.3242 241.338V218.736H66.8417C69.9097 218.736 71.9551 219.561 73.4175 221.119C74.5822 222.345 75.2269 223.972 75.2174 225.659C75.2174 228.714 73.1721 231.025 70.2165 232.124L75.6367 241.338H71.1574L66.2895 232.644H58.2206V241.338H54.3242ZM58.2206 222.198V229.192H67.4962C68.4672 229.214 69.4082 228.857 70.1174 228.197C70.8267 227.536 71.2478 226.625 71.2903 225.659C71.2853 224.816 70.9474 224.008 70.3495 223.409C69.8819 222.963 69.3222 222.623 68.7094 222.414C68.0965 222.205 67.4452 222.131 66.8008 222.198H58.2206Z" fill="#FEFEFE"/>
<path d="M81.5488 241.338V218.736H85.4452V241.338H81.5488Z" fill="#FEFEFE"/>
<path d="M90.4141 218.736H112.146V222.198H103.289V241.338H99.3522V222.198H90.4141V218.736Z" fill="#FEFEFE"/>
<path d="M122.65 218.736H126.198L136.732 241.338H132.457L129.706 235.23H118.896L116.186 241.338H112.096L122.65 218.736ZM120.287 232.124H128.315L124.419 223.369H124.214L120.287 232.124Z" fill="#FEFEFE"/>
<path d="M159.403 224.55C157.257 222.615 154.474 221.528 151.579 221.495C150.454 221.52 149.345 221.765 148.314 222.217C147.284 222.669 146.353 223.318 145.575 224.127C144.797 224.937 144.186 225.892 143.779 226.936C143.371 227.981 143.174 229.095 143.199 230.216C143.224 231.336 143.47 232.44 143.923 233.466C144.377 234.492 145.029 235.418 145.843 236.193C146.656 236.968 147.615 237.576 148.664 237.982C149.713 238.387 150.832 238.584 151.958 238.559C154.314 238.599 156.633 237.963 158.636 236.726V232.186H151.477V228.724H162.154V238.6C159.083 240.749 155.435 241.93 151.682 241.99C150.062 242.076 148.441 241.836 146.916 241.283C145.392 240.731 143.995 239.878 142.809 238.775C141.624 237.673 140.674 236.343 140.016 234.867C139.359 233.39 139.008 231.797 138.984 230.182C138.96 228.567 139.263 226.964 139.876 225.468C140.489 223.973 141.399 222.616 142.551 221.479C143.703 220.342 145.074 219.448 146.582 218.851C148.089 218.253 149.702 217.965 151.324 218.003H151.508C155.403 218.086 159.145 219.528 162.082 222.076L159.403 224.55Z" fill="#FEFEFE"/>
<path d="M181.79 231.259H173.066V237.877H188.406V241.338H169.17V218.736H187.578V222.198H173.066V227.808H181.79V231.259Z" fill="#FEFEFE"/>
</svg>
