<svg width="414" height="139" viewBox="0 0 414 139" fill="none" xmlns="http://www.w3.org/2000/svg">
<mask id="mask0_255_449" style="mask-type:luminance" maskUnits="userSpaceOnUse" x="0" y="0" width="414" height="139">
<path d="M414 0H0V139H414V0Z" fill="white"/>
</mask>
<g mask="url(#mask0_255_449)">
<path d="M161.313 92.1372C155.411 104.115 144.918 113.958 125.557 113.958C104.04 113.958 85.3193 96.8432 85.3193 75.6644C85.3193 54.4857 104.895 37.3862 126.546 37.3862C138.355 37.3862 145.461 40.3933 154.755 46.372L151.476 58.565H150.708C142.726 46.1565 129.702 36.9604 115.393 39.9573C96.693 43.9113 89.915 65.5161 95.8169 84.4496C101.724 103.273 117.468 113.116 136.711 110.229C146.553 108.836 154.975 102.526 160.549 91.8316L161.313 92.1372Z" fill="white"/>
<path d="M188.427 26.4604L187.771 27.4228C185.148 26.4604 179.353 23.9147 171.479 19.4043C168.856 17.9008 168.963 15.8962 169.942 14.5881C170.931 13.2 172.898 12.5585 175.065 14.4829C181.869 20.3464 186.352 24.536 188.427 26.4604ZM185.04 45.6095V106.249C185.04 109.993 185.804 111.597 187.556 112.559V113.305H173.994V112.559C175.634 111.597 176.402 109.993 176.402 106.249V45.6095C176.402 41.866 175.634 40.2622 173.994 39.295V38.4431H187.556V39.295C185.804 40.2622 185.04 41.866 185.04 45.6095Z" fill="white"/>
<path d="M263.573 113.311H246.713V112.559C249.555 109.778 248.678 106.044 245.616 98.2264L240.262 84.645H213.144L210.193 92.7738C206.704 102.536 206.146 107.753 210.736 112.559V113.306H197.836V112.559C202.539 107.748 205.705 102.827 209.317 92.7738L225.712 47.6348L222.125 38.4387H230.763L252.086 92.7738C256.569 103.468 259.413 107.748 263.567 112.559L263.573 113.311ZM239.955 83.7931L226.173 48.8176L213.472 83.7931H239.955Z" fill="white"/>
<path d="M335.294 113.311H318.433V112.559C321.278 109.778 320.405 106.044 317.342 98.2264L311.983 84.645H284.866L281.914 92.7738C278.426 102.536 277.868 107.753 282.464 112.559V113.306H269.557V112.559C274.26 107.748 277.432 102.827 281.04 92.7738L297.433 47.6348L293.847 38.4387H302.485L323.808 92.7738C328.291 103.468 331.134 107.748 335.289 112.559L335.294 113.311ZM311.676 83.7931L297.893 48.8176L285.193 83.7931H311.676Z" fill="white"/>
<path d="M414.004 38.4441V39.2962C410.391 41.1153 407.113 46.6782 407.113 51.2786V113.311H405.484L353.438 48.1615V100.477C353.438 105.078 356.716 110.745 360.435 112.565V113.311H345.665V112.56C349.38 110.741 352.663 105.073 352.663 100.472V47.2143L345.665 38.4441H356.705L406.236 99.8355V51.2786C406.236 46.6782 402.957 41.1153 399.352 39.2962V38.4441H414.004Z" fill="white"/>
<path d="M32.8438 41.0898C32.8438 41.0898 37.0191 53.4033 51.9125 50.8624C47.989 45.9623 42.339 42.6691 36.0663 41.6262L32.8438 41.0898Z" fill="white"/>
<path d="M65.6751 0H0V41.0094L19.3505 35.0207L0 47.745V90.4583L21.072 79.012L0 99.915V139.005H10.3848L34.4642 108.68L22.2656 139.005H65.6853V126.476L48.8349 120.578C48.3407 120.404 47.9238 120.068 47.6563 119.626C47.389 119.184 47.2875 118.664 47.3696 118.157L48.0356 114.103C48.1471 113.41 48.485 112.772 48.9985 112.283C49.512 111.794 50.1735 111.482 50.8842 111.392L65.6751 109.482V82.7205L50.8176 81.5277C50.7101 81.5195 50.6026 81.5403 50.5064 81.5879C50.4103 81.6354 50.3293 81.7077 50.2723 81.7971C50.2151 81.8865 50.1841 81.9895 50.1828 82.0947C50.1815 82.2002 50.2095 82.3039 50.2643 82.3948C52.0382 85.1322 54.5385 87.3474 57.4984 88.8045L61.5046 90.7789C62.1964 91.1198 62.7778 91.6418 63.184 92.287C63.5902 92.9321 63.8052 93.6748 63.805 94.4324V102.897C63.8045 103.344 63.659 103.779 63.3892 104.139C63.1192 104.499 62.7393 104.767 62.3039 104.902L49.6853 108.846C49.1229 109.019 48.5181 109.008 47.963 108.813C47.4079 108.618 46.9331 108.251 46.6113 107.768L39.8896 97.6347C39.551 97.1189 39.344 96.5309 39.2861 95.9204C39.2283 95.3099 39.3209 94.6948 39.5566 94.1266C42.1746 87.8873 44.8233 85.7976 44.8233 85.7976C41.5854 86.6795 38.6754 89.1202 36.1958 92.067L32.7837 86.92C32.1433 85.9578 31.5439 84.9756 30.9752 83.9834C30.5289 83.2019 30.3767 82.2922 30.5447 81.4125C32.0819 73.4741 34.7715 70.5374 34.7715 70.5374C31.9537 71.8054 29.6482 74.3463 27.7476 77.318C25.2527 71.0908 23.9719 64.4614 23.9717 57.773V49.048C23.9715 35.7003 29.1349 22.847 38.4243 13.0701C39.324 12.1384 40.4781 11.4788 41.7495 11.1697C43.0208 10.8606 44.3561 10.9148 45.597 11.3261L65.7007 17.8411L65.6751 0Z" fill="white"/>
</g>
</svg>
