<svg width="70" height="69" viewBox="0 0 70 69" fill="none" xmlns="http://www.w3.org/2000/svg">
<circle cx="35" cy="34.5" r="34.5" fill="#F4F4F4" fill-opacity="0.75"/>
<path d="M45.3541 35.1999C45.3549 35.5446 45.2744 35.8837 45.1203 36.1842C44.9663 36.4847 44.7441 36.7363 44.4752 36.9145L27.8126 48.1009C27.5316 48.2897 27.2099 48.3928 26.8805 48.3995C26.5512 48.4062 26.2262 48.3162 25.9391 48.139C25.6547 47.9645 25.4178 47.7101 25.2528 47.4018C25.0877 47.0935 25.0005 46.7426 25 46.385V24.0148C25.0005 23.6573 25.0877 23.3063 25.2528 22.998C25.4178 22.6898 25.6547 22.4353 25.9391 22.2608C26.2262 22.0836 26.5512 21.9937 26.8805 22.0003C27.2099 22.007 27.5316 22.1101 27.8126 22.2989L44.4752 33.4853C44.7441 33.6636 44.9663 33.9152 45.1203 34.2156C45.2744 34.5161 45.3549 34.8552 45.3541 35.1999Z" fill="#FF0A00"/>
</svg>
