<svg width="394" height="81" viewBox="0 0 394 81" fill="none" xmlns="http://www.w3.org/2000/svg">
<path d="M89.8599 63.9414H103.37L118.835 19.5376V17.7615H110.747L97.5037 56.5703C97.3259 57.1032 97.1482 57.2808 96.6149 57.2808C96.0816 57.2808 95.9038 57.1032 95.7261 56.5703L82.4827 17.7615H74.3945V19.5376L89.8599 63.9414Z" fill="#F4EAE1"/>
<path d="M124.341 63.9414H132.34V17.7615H124.341V63.9414Z" fill="#F4EAE1"/>
<path d="M147.492 63.9414L149.358 57.9913C149.536 57.4584 149.803 57.2808 150.247 57.2808C150.603 57.2808 150.869 57.4584 151.225 57.9913C154.78 62.8757 160.202 65.2735 167.046 65.2735C178.245 65.2735 189.799 57.7248 189.799 40.8514C189.799 23.978 178.245 16.4294 167.046 16.4294C160.557 16.4294 155.313 18.3831 151.758 22.9123C151.492 23.2676 151.225 23.534 150.78 23.534C150.425 23.534 150.158 23.3564 150.158 22.9123V0H142.159V63.9414H147.492ZM149.714 40.8514C149.714 29.7505 156.38 23.534 165.713 23.534C175.045 23.534 181.711 29.7505 181.711 40.8514C181.711 51.9524 175.045 58.1689 165.713 58.1689C156.38 58.1689 149.714 51.9524 149.714 40.8514Z" fill="#F4EAE1"/>
<path d="M231.352 49.2881C230.063 54.5278 226.286 58.3465 217.664 58.3465C209.087 58.3465 202.688 53.4621 202.155 43.0716H239.529V38.6312C239.529 25.7542 231.885 16.4294 217.487 16.4294C203.266 16.4294 194.2 25.7542 194.2 40.8514C194.2 55.9487 202.377 65.2735 217.664 65.2735C232.33 65.2735 238.374 56.3039 239.707 49.2881H231.352ZM217.487 23.3564C225.93 23.3564 231.174 27.8855 231.53 36.4111H202.377C203.71 27.7079 209.843 23.3564 217.487 23.3564Z" fill="#F4EAE1"/>
<path d="M281.91 45.7358C281.288 53.0181 276.755 58.1689 267.778 58.1689C258.445 58.1689 252.134 51.9524 252.134 40.8514C252.134 29.7505 258.445 23.534 267.778 23.534C276.666 23.534 280.754 28.152 281.554 34.6349H289.82C289.287 24.8661 281.554 16.4294 267.778 16.4294C253.912 16.4294 244.046 25.1325 244.046 40.8514C244.046 56.5704 253.912 65.2735 267.778 65.2735C281.643 65.2735 289.465 56.8368 290.176 45.7358H281.91Z" fill="#F4EAE1"/>
<path d="M294.682 50.3538C294.682 59.2346 301.348 65.2735 312.903 65.2735C318.947 65.2735 323.835 63.4529 327.124 59.057C327.479 58.6129 327.657 58.5241 328.013 58.5241C328.368 58.5241 328.546 58.7017 328.546 59.057V63.9414H336.19V34.1909C336.19 23.1787 330.235 16.4294 316.903 16.4294C303.57 16.4294 297.349 23.1787 296.993 31.9707H305.259C305.437 27.1751 308.725 23.3564 316.903 23.3564C325.08 23.3564 328.457 27.1751 328.457 33.7468V36.2334L311.57 36.9439C300.015 37.4323 294.682 42.3612 294.682 50.3538ZM302.682 50.3538C302.682 46.3575 305.348 43.9597 311.57 43.6933L328.457 42.9828V43.5157C328.457 53.2845 322.68 58.3465 313.792 58.3465C306.681 58.3465 302.682 55.2382 302.682 50.3538Z" fill="#F4EAE1"/>
<path d="M393.352 40.8514C393.352 23.978 381.797 16.4294 370.598 16.4294C364.11 16.4294 358.866 18.3831 355.222 23.0011C354.955 23.3564 354.688 23.6228 354.244 23.6228C353.799 23.6228 353.622 23.3564 353.622 22.9123V17.7615H345.711V80.8148H353.711V58.8793C353.711 58.4353 353.888 58.1689 354.333 58.1689C354.777 58.1689 355.044 58.4353 355.31 58.7905C358.866 63.3197 364.11 65.2735 370.598 65.2735C381.797 65.2735 393.352 57.7248 393.352 40.8514ZM385.263 40.8514C385.263 51.9524 378.597 58.1689 369.265 58.1689C359.932 58.1689 353.266 51.9524 353.266 40.8514C353.266 29.7505 359.932 23.534 369.265 23.534C378.597 23.534 385.263 29.7505 385.263 40.8514Z" fill="#F4EAE1"/>
<path d="M89.8599 63.9414H103.37L118.835 19.5376V17.7615H110.747L97.5037 56.5703C97.3259 57.1032 97.1482 57.2808 96.6149 57.2808C96.0816 57.2808 95.9038 57.1032 95.7261 56.5703L82.4827 17.7615H74.3945V19.5376L89.8599 63.9414Z" fill="#F4EAE1"/>
<path fill-rule="evenodd" clip-rule="evenodd" d="M40.4082 55.3183L17.1337 17.7883H0.647461V19.506L13.3944 39.9418L27.7756 63.1256H44.2619V61.408L40.4639 55.408C40.4453 55.3802 40.4278 55.3503 40.4082 55.3183Z" fill="url(#paint0_linear_246_256)"/>
<path fill-rule="evenodd" clip-rule="evenodd" d="M40.8373 17.7883C37.8312 17.7883 34.9483 18.9825 32.8227 21.1081C30.6971 23.2337 29.5029 26.1166 29.5029 29.1227C29.5029 32.1287 30.6971 35.0116 32.8227 37.1372C34.9483 39.2628 37.8312 40.457 40.8373 40.457H51.6564V17.7883H40.8373Z" fill="url(#paint1_linear_246_256)"/>
<defs>
<linearGradient id="paint0_linear_246_256" x1="22.4547" y1="17.7883" x2="22.4547" y2="63.1256" gradientUnits="userSpaceOnUse">
<stop stop-color="#630DF3"/>
<stop offset="0.405087" stop-color="#7527EC"/>
<stop offset="1" stop-color="#FFEFB7"/>
</linearGradient>
<linearGradient id="paint1_linear_246_256" x1="40.5797" y1="17.7883" x2="40.5797" y2="40.457" gradientUnits="userSpaceOnUse">
<stop stop-color="#630DF3"/>
<stop offset="0.405087" stop-color="#7527EC"/>
<stop offset="1" stop-color="#FFEFB7"/>
</linearGradient>
</defs>
</svg>
